<svg width="507" height="197" viewBox="0 0 507 197" fill="none" xmlns="http://www.w3.org/2000/svg">
<mask id="path-1-inside-1_304_26" fill="white">
<path d="M0 10C0 4.47715 4.47715 0 10 0H507V111H10C4.47717 111 0 106.523 0 101V10Z"/>
</mask>
<path d="M0 10C0 4.47715 4.47715 0 10 0H507V111H10C4.47717 111 0 106.523 0 101V10Z" fill="white"/>
<path d="M-7 10C-7 0.611159 0.611159 -7 10 -7H507V7H10C8.34315 7 7 8.34315 7 10H-7ZM507 118H10C0.611159 118 -7 110.389 -7 101H7C7 102.657 8.34315 104 10 104H507V118ZM10 118C0.611159 118 -7 110.389 -7 101V10C-7 0.611159 0.611159 -7 10 -7V7C8.34315 7 7 8.34315 7 10V101C7 102.657 8.34315 104 10 104V118ZM507 0V111V0Z" fill="#857070" mask="url(#path-1-inside-1_304_26)"/>
<line x1="7" y1="9.5" x2="501" y2="9.50004" stroke="black" stroke-opacity="0.14"/>
<line x1="7" y1="12.5" x2="501" y2="12.5" stroke="black" stroke-opacity="0.14"/>
<line x1="7" y1="15.5" x2="501" y2="15.5" stroke="black" stroke-opacity="0.14"/>
<line x1="7" y1="18.5" x2="501" y2="18.5" stroke="black" stroke-opacity="0.14"/>
<line x1="7" y1="21.5" x2="501" y2="21.5" stroke="black" stroke-opacity="0.14"/>
<line x1="7" y1="24.5" x2="501" y2="24.5" stroke="black" stroke-opacity="0.14"/>
<line x1="7" y1="27.5" x2="501" y2="27.5" stroke="black" stroke-opacity="0.14"/>
<line x1="7" y1="30.5" x2="501" y2="30.5" stroke="black" stroke-opacity="0.14"/>
<line x1="7" y1="33.5" x2="501" y2="33.5" stroke="black" stroke-opacity="0.14"/>
<line x1="7" y1="36.5" x2="501" y2="36.5" stroke="black" stroke-opacity="0.14"/>
<line x1="7" y1="39.5" x2="501" y2="39.5" stroke="black" stroke-opacity="0.14"/>
<line x1="7" y1="42.5" x2="501" y2="42.5" stroke="black" stroke-opacity="0.14"/>
<line x1="7" y1="45.5" x2="501" y2="45.5" stroke="black" stroke-opacity="0.14"/>
<line x1="7" y1="48.5" x2="501" y2="48.5" stroke="black" stroke-opacity="0.14"/>
<line x1="7" y1="51.5" x2="501" y2="51.5" stroke="black" stroke-opacity="0.14"/>
<line x1="7" y1="54.5" x2="501" y2="54.5" stroke="black" stroke-opacity="0.14"/>
<line x1="7" y1="57.5" x2="501" y2="57.5" stroke="black" stroke-opacity="0.14"/>
<line x1="7" y1="60.5" x2="501" y2="60.5" stroke="black" stroke-opacity="0.14"/>
<line x1="7" y1="63.5" x2="501" y2="63.5" stroke="black" stroke-opacity="0.14"/>
<line x1="7" y1="66.5" x2="501" y2="66.5" stroke="black" stroke-opacity="0.14"/>
<line x1="7" y1="69.5" x2="501" y2="69.5" stroke="black" stroke-opacity="0.14"/>
<line x1="7" y1="72.5" x2="501" y2="72.5" stroke="black" stroke-opacity="0.14"/>
<line x1="7" y1="75.5" x2="501" y2="75.5" stroke="black" stroke-opacity="0.14"/>
<line x1="7" y1="78.5" x2="501" y2="78.5" stroke="black" stroke-opacity="0.14"/>
<line x1="7" y1="81.5" x2="501" y2="81.5" stroke="black" stroke-opacity="0.14"/>
<line x1="7" y1="84.5" x2="501" y2="84.5" stroke="black" stroke-opacity="0.14"/>
<line x1="7" y1="87.5" x2="501" y2="87.5" stroke="black" stroke-opacity="0.14"/>
<line x1="7" y1="90.5" x2="501" y2="90.5" stroke="black" stroke-opacity="0.14"/>
<line x1="7" y1="93.5" x2="501" y2="93.5" stroke="black" stroke-opacity="0.14"/>
<line x1="7" y1="96.5" x2="501" y2="96.5" stroke="black" stroke-opacity="0.14"/>
<line x1="7" y1="99.5" x2="501" y2="99.5" stroke="black" stroke-opacity="0.14"/>
<line x1="7" y1="102.5" x2="501" y2="102.5" stroke="black" stroke-opacity="0.14"/>
<path d="M500 9C500 7.89543 500.895 7 502 7H507V104H502C500.895 104 500 103.105 500 102V9Z" fill="#EDDAD4"/>
<line x1="25" y1="80.5" x2="155" y2="80.5" stroke="#AD6048" stroke-width="3"/>
<g filter="url(#filter0_d_304_26)">
<path d="M104 192L104 139H73L73 192L88.5 181.43L104 192Z" fill="#A84D59"/>
</g>
<circle cx="88" cy="142" r="2" fill="#D9D9D9"/>
<line x1="88" y1="142" x2="88" y2="79" stroke="#6D6D6D" stroke-width="2"/>
<ellipse cx="88" cy="135" rx="4" ry="2" fill="#6D6D6D"/>
<path d="M96.9219 168.031C96.9219 169.146 96.7031 170.151 96.2656 171.047C95.8385 171.943 95.2708 172.708 94.5625 173.344C93.8646 173.969 93.0625 174.453 92.1562 174.797C91.2604 175.141 90.3438 175.312 89.4062 175.312C88.3646 175.312 87.3854 175.161 86.4688 174.859C85.5625 174.547 84.7656 174.109 84.0781 173.547C83.401 172.984 82.8646 172.307 82.4688 171.516C82.0833 170.724 81.8906 169.839 81.8906 168.859C81.8906 167.911 82.0573 167.078 82.3906 166.359C82.724 165.641 83.1615 165.005 83.7031 164.453C84.2448 163.891 84.8646 163.391 85.5625 162.953C86.2604 162.505 86.9688 162.083 87.6875 161.688C87.1771 161.333 86.6979 160.964 86.25 160.578C85.8021 160.182 85.4062 159.766 85.0625 159.328C84.7292 158.891 84.4635 158.422 84.2656 157.922C84.0677 157.422 83.9688 156.875 83.9688 156.281C83.9688 155.5 84.125 154.802 84.4375 154.188C84.75 153.573 85.1615 153.052 85.6719 152.625C86.1823 152.198 86.7604 151.875 87.4062 151.656C88.0625 151.427 88.7292 151.312 89.4062 151.312C90.1875 151.312 90.9062 151.422 91.5625 151.641C92.2292 151.849 92.8021 152.151 93.2812 152.547C93.7708 152.932 94.151 153.401 94.4219 153.953C94.7031 154.505 94.8438 155.12 94.8438 155.797C94.8438 156.411 94.7448 156.958 94.5469 157.438C94.349 157.906 94.0781 158.333 93.7344 158.719C93.401 159.104 93.0052 159.458 92.5469 159.781C92.099 160.104 91.6198 160.411 91.1094 160.703C91.8177 161.151 92.5208 161.62 93.2188 162.109C93.9167 162.589 94.5365 163.125 95.0781 163.719C95.6302 164.302 96.0729 164.948 96.4062 165.656C96.75 166.354 96.9219 167.146 96.9219 168.031ZM83.9688 168.984C83.9688 169.891 84.1198 170.688 84.4219 171.375C84.7344 172.062 85.1458 172.641 85.6562 173.109C86.1667 173.568 86.7448 173.917 87.3906 174.156C88.0469 174.396 88.7188 174.516 89.4062 174.516C90.1042 174.516 90.7708 174.411 91.4062 174.203C92.0417 173.984 92.599 173.656 93.0781 173.219C93.5677 172.781 93.9583 172.234 94.25 171.578C94.5417 170.911 94.6875 170.13 94.6875 169.234C94.6875 168.422 94.5 167.693 94.125 167.047C93.75 166.391 93.2656 165.786 92.6719 165.234C92.0781 164.682 91.4062 164.167 90.6562 163.688C89.9167 163.198 89.1823 162.703 88.4531 162.203C87.8594 162.557 87.2917 162.943 86.75 163.359C86.2083 163.766 85.7292 164.24 85.3125 164.781C84.9062 165.312 84.5781 165.922 84.3281 166.609C84.0885 167.297 83.9688 168.089 83.9688 168.984ZM93.25 155.641C93.25 155.099 93.1615 154.604 92.9844 154.156C92.8177 153.698 92.5677 153.307 92.2344 152.984C91.9115 152.661 91.5104 152.411 91.0312 152.234C90.5521 152.047 90.0104 151.953 89.4062 151.953C88.9375 151.953 88.4896 152.031 88.0625 152.188C87.6354 152.344 87.2604 152.568 86.9375 152.859C86.6146 153.141 86.3594 153.49 86.1719 153.906C85.9844 154.323 85.8906 154.792 85.8906 155.312C85.8906 155.823 86.0104 156.297 86.25 156.734C86.4896 157.161 86.8073 157.573 87.2031 157.969C87.6094 158.354 88.0729 158.729 88.5938 159.094C89.125 159.448 89.6823 159.802 90.2656 160.156C90.6927 159.875 91.0885 159.578 91.4531 159.266C91.8177 158.953 92.1302 158.615 92.3906 158.25C92.6615 157.875 92.8698 157.474 93.0156 157.047C93.1719 156.62 93.25 156.151 93.25 155.641Z" fill="white"/>
<defs>
<filter id="filter0_d_304_26" x="70" y="136" width="39" height="61" filterUnits="userSpaceOnUse" color-interpolation-filters="sRGB">
<feFlood flood-opacity="0" result="BackgroundImageFix"/>
<feColorMatrix in="SourceAlpha" type="matrix" values="0 0 0 0 0 0 0 0 0 0 0 0 0 0 0 0 0 0 127 0" result="hardAlpha"/>
<feOffset dx="1" dy="1"/>
<feGaussianBlur stdDeviation="2"/>
<feComposite in2="hardAlpha" operator="out"/>
<feColorMatrix type="matrix" values="0 0 0 0 0 0 0 0 0 0 0 0 0 0 0 0 0 0 0.25 0"/>
<feBlend mode="normal" in2="BackgroundImageFix" result="effect1_dropShadow_304_26"/>
<feBlend mode="normal" in="SourceGraphic" in2="effect1_dropShadow_304_26" result="shape"/>
</filter>
</defs>
</svg>
