<svg width="507" height="145" viewBox="0 0 507 145" fill="none" xmlns="http://www.w3.org/2000/svg">
<mask id="path-1-inside-1_304_26" fill="white">
<path d="M0 10C0 4.47715 4.47715 0 10 0H507V111H10C4.47717 111 0 106.523 0 101V10Z"/>
</mask>
<path d="M0 10C0 4.47715 4.47715 0 10 0H507V111H10C4.47717 111 0 106.523 0 101V10Z" fill="white"/>
<path d="M-7 10C-7 0.611159 0.611159 -7 10 -7H507V7H10C8.34315 7 7 8.34315 7 10H-7ZM507 118H10C0.611159 118 -7 110.389 -7 101H7C7 102.657 8.34315 104 10 104H507V118ZM10 118C0.611159 118 -7 110.389 -7 101V10C-7 0.611159 0.611159 -7 10 -7V7C8.34315 7 7 8.34315 7 10V101C7 102.657 8.34315 104 10 104V118ZM507 0V111V0Z" fill="#857070" mask="url(#path-1-inside-1_304_26)"/>
<line x1="7" y1="9.5" x2="501" y2="9.50004" stroke="black" stroke-opacity="0.14"/>
<line x1="7" y1="12.5" x2="501" y2="12.5" stroke="black" stroke-opacity="0.14"/>
<line x1="7" y1="15.5" x2="501" y2="15.5" stroke="black" stroke-opacity="0.14"/>
<line x1="7" y1="18.5" x2="501" y2="18.5" stroke="black" stroke-opacity="0.14"/>
<line x1="7" y1="21.5" x2="501" y2="21.5" stroke="black" stroke-opacity="0.14"/>
<line x1="7" y1="24.5" x2="501" y2="24.5" stroke="black" stroke-opacity="0.14"/>
<line x1="7" y1="27.5" x2="501" y2="27.5" stroke="black" stroke-opacity="0.14"/>
<line x1="7" y1="30.5" x2="501" y2="30.5" stroke="black" stroke-opacity="0.14"/>
<line x1="7" y1="33.5" x2="501" y2="33.5" stroke="black" stroke-opacity="0.14"/>
<line x1="7" y1="36.5" x2="501" y2="36.5" stroke="black" stroke-opacity="0.14"/>
<line x1="7" y1="39.5" x2="501" y2="39.5" stroke="black" stroke-opacity="0.14"/>
<line x1="7" y1="42.5" x2="501" y2="42.5" stroke="black" stroke-opacity="0.14"/>
<line x1="7" y1="45.5" x2="501" y2="45.5" stroke="black" stroke-opacity="0.14"/>
<line x1="7" y1="48.5" x2="501" y2="48.5" stroke="black" stroke-opacity="0.14"/>
<line x1="7" y1="51.5" x2="501" y2="51.5" stroke="black" stroke-opacity="0.14"/>
<line x1="7" y1="54.5" x2="501" y2="54.5" stroke="black" stroke-opacity="0.14"/>
<line x1="7" y1="57.5" x2="501" y2="57.5" stroke="black" stroke-opacity="0.14"/>
<line x1="7" y1="60.5" x2="501" y2="60.5" stroke="black" stroke-opacity="0.14"/>
<line x1="7" y1="63.5" x2="501" y2="63.5" stroke="black" stroke-opacity="0.14"/>
<line x1="7" y1="66.5" x2="501" y2="66.5" stroke="black" stroke-opacity="0.14"/>
<line x1="7" y1="69.5" x2="501" y2="69.5" stroke="black" stroke-opacity="0.14"/>
<line x1="7" y1="72.5" x2="501" y2="72.5" stroke="black" stroke-opacity="0.14"/>
<line x1="7" y1="75.5" x2="501" y2="75.5" stroke="black" stroke-opacity="0.14"/>
<line x1="7" y1="78.5" x2="501" y2="78.5" stroke="black" stroke-opacity="0.14"/>
<line x1="7" y1="81.5" x2="501" y2="81.5" stroke="black" stroke-opacity="0.14"/>
<line x1="7" y1="84.5" x2="501" y2="84.5" stroke="black" stroke-opacity="0.14"/>
<line x1="7" y1="87.5" x2="501" y2="87.5" stroke="black" stroke-opacity="0.14"/>
<line x1="7" y1="90.5" x2="501" y2="90.5" stroke="black" stroke-opacity="0.14"/>
<line x1="7" y1="93.5" x2="501" y2="93.5" stroke="black" stroke-opacity="0.14"/>
<line x1="7" y1="96.5" x2="501" y2="96.5" stroke="black" stroke-opacity="0.14"/>
<line x1="7" y1="99.5" x2="501" y2="99.5" stroke="black" stroke-opacity="0.14"/>
<line x1="7" y1="102.5" x2="501" y2="102.5" stroke="black" stroke-opacity="0.14"/>
<path d="M500 9C500 7.89543 500.895 7 502 7H507V104H502C500.895 104 500 103.105 500 102V9Z" fill="#EDDAD4"/>
<line x1="25" y1="28.5" x2="155" y2="28.5" stroke="#AD6048" stroke-width="3"/>
<g filter="url(#filter0_d_304_26)">
<path d="M104 140L104 87H73L73 140L88.5 129.43L104 140Z" fill="#A84D59"/>
</g>
<circle cx="88" cy="90" r="2" fill="#D9D9D9"/>
<line x1="88" y1="90" x2="88" y2="27" stroke="#6D6D6D" stroke-width="2"/>
<ellipse cx="88" cy="83" rx="4" ry="2" fill="#6D6D6D"/>
<path d="M86.4062 110.516C87.0625 110.172 87.7292 109.76 88.4062 109.281C89.0938 108.802 89.7135 108.266 90.2656 107.672C90.8177 107.068 91.2708 106.401 91.625 105.672C91.9792 104.943 92.1562 104.156 92.1562 103.312C92.1562 102.771 92.0677 102.302 91.8906 101.906C91.724 101.51 91.4948 101.188 91.2031 100.938C90.9219 100.677 90.5885 100.49 90.2031 100.375C89.8177 100.25 89.4115 100.188 88.9844 100.188C88.4948 100.188 88.0208 100.281 87.5625 100.469C87.1042 100.656 86.6927 100.922 86.3281 101.266C85.9635 101.599 85.6719 101.995 85.4531 102.453C85.2344 102.911 85.125 103.411 85.125 103.953C85.125 104.443 85.2135 104.87 85.3906 105.234C85.5677 105.589 85.7656 105.885 85.9844 106.125C86.2344 106.406 86.5208 106.646 86.8438 106.844L86.5 107.547C85.9271 107.422 85.4323 107.245 85.0156 107.016C84.6094 106.786 84.2708 106.526 84 106.234C83.7292 105.932 83.526 105.609 83.3906 105.266C83.2656 104.911 83.2031 104.552 83.2031 104.188C83.2031 103.615 83.3438 103.047 83.625 102.484C83.9167 101.911 84.3281 101.396 84.8594 100.938C85.401 100.479 86.0521 100.109 86.8125 99.8281C87.5729 99.5365 88.4271 99.3906 89.375 99.3906C90.0417 99.3906 90.6927 99.4635 91.3281 99.6094C91.974 99.7552 92.5417 99.9844 93.0312 100.297C93.5312 100.599 93.9323 100.99 94.2344 101.469C94.5365 101.938 94.6875 102.5 94.6875 103.156C94.6875 103.698 94.5573 104.229 94.2969 104.75C94.0469 105.271 93.724 105.776 93.3281 106.266C92.9427 106.745 92.5104 107.198 92.0312 107.625C91.5625 108.042 91.1094 108.422 90.6719 108.766C90.2448 109.109 89.8594 109.406 89.5156 109.656C89.1719 109.896 88.9323 110.078 88.7969 110.203C89.9115 110.245 90.9062 110.438 91.7812 110.781C92.6562 111.125 93.3906 111.573 93.9844 112.125C94.5885 112.677 95.0469 113.312 95.3594 114.031C95.6823 114.75 95.8438 115.5 95.8438 116.281C95.8438 117.031 95.7344 117.719 95.5156 118.344C95.2969 118.969 94.9948 119.531 94.6094 120.031C94.224 120.531 93.7708 120.969 93.25 121.344C92.7292 121.719 92.1667 122.031 91.5625 122.281C90.9688 122.531 90.3438 122.719 89.6875 122.844C89.0417 122.969 88.3958 123.031 87.75 123.031C86.9271 123.031 86.1354 122.932 85.375 122.734C84.6146 122.536 83.9427 122.24 83.3594 121.844C82.776 121.438 82.3073 120.932 81.9531 120.328C81.6094 119.724 81.4375 119.016 81.4375 118.203C81.4375 117.766 81.4948 117.333 81.6094 116.906C81.7344 116.469 81.8958 116.057 82.0938 115.672C82.3021 115.276 82.5417 114.906 82.8125 114.562C83.0938 114.208 83.3958 113.896 83.7188 113.625L84.2812 114.047C84.0312 114.547 83.8438 115.057 83.7188 115.578C83.6042 116.089 83.5469 116.599 83.5469 117.109C83.5469 117.943 83.6875 118.672 83.9688 119.297C84.25 119.922 84.6198 120.443 85.0781 120.859C85.5365 121.276 86.0573 121.589 86.6406 121.797C87.2344 122.005 87.8385 122.109 88.4531 122.109C89.0573 122.109 89.651 122.005 90.2344 121.797C90.8177 121.589 91.3385 121.281 91.7969 120.875C92.2656 120.469 92.6406 119.964 92.9219 119.359C93.2031 118.745 93.3438 118.036 93.3438 117.234C93.3438 116.547 93.2031 115.854 92.9219 115.156C92.651 114.448 92.2396 113.812 91.6875 113.25C91.1354 112.677 90.4427 112.214 89.6094 111.859C88.7865 111.495 87.8229 111.312 86.7188 111.312L86.4062 110.516Z" fill="white"/>
<defs>
<filter id="filter0_d_304_26" x="70" y="84" width="39" height="61" filterUnits="userSpaceOnUse" color-interpolation-filters="sRGB">
<feFlood flood-opacity="0" result="BackgroundImageFix"/>
<feColorMatrix in="SourceAlpha" type="matrix" values="0 0 0 0 0 0 0 0 0 0 0 0 0 0 0 0 0 0 127 0" result="hardAlpha"/>
<feOffset dx="1" dy="1"/>
<feGaussianBlur stdDeviation="2"/>
<feComposite in2="hardAlpha" operator="out"/>
<feColorMatrix type="matrix" values="0 0 0 0 0 0 0 0 0 0 0 0 0 0 0 0 0 0 0.25 0"/>
<feBlend mode="normal" in2="BackgroundImageFix" result="effect1_dropShadow_304_26"/>
<feBlend mode="normal" in="SourceGraphic" in2="effect1_dropShadow_304_26" result="shape"/>
</filter>
</defs>
</svg>
