<svg width="507" height="136" viewBox="0 0 507 136" fill="none" xmlns="http://www.w3.org/2000/svg">
<mask id="path-1-inside-1_304_26" fill="white">
<path d="M0 10C0 4.47715 4.47715 0 10 0H507V111H10C4.47717 111 0 106.523 0 101V10Z"/>
</mask>
<path d="M0 10C0 4.47715 4.47715 0 10 0H507V111H10C4.47717 111 0 106.523 0 101V10Z" fill="white"/>
<path d="M-7 10C-7 0.611159 0.611159 -7 10 -7H507V7H10C8.34315 7 7 8.34315 7 10H-7ZM507 118H10C0.611159 118 -7 110.389 -7 101H7C7 102.657 8.34315 104 10 104H507V118ZM10 118C0.611159 118 -7 110.389 -7 101V10C-7 0.611159 0.611159 -7 10 -7V7C8.34315 7 7 8.34315 7 10V101C7 102.657 8.34315 104 10 104V118ZM507 0V111V0Z" fill="#857070" mask="url(#path-1-inside-1_304_26)"/>
<line x1="7" y1="9.5" x2="501" y2="9.50004" stroke="black" stroke-opacity="0.14"/>
<line x1="7" y1="12.5" x2="501" y2="12.5" stroke="black" stroke-opacity="0.14"/>
<line x1="7" y1="15.5" x2="501" y2="15.5" stroke="black" stroke-opacity="0.14"/>
<line x1="7" y1="18.5" x2="501" y2="18.5" stroke="black" stroke-opacity="0.14"/>
<line x1="7" y1="21.5" x2="501" y2="21.5" stroke="black" stroke-opacity="0.14"/>
<line x1="7" y1="24.5" x2="501" y2="24.5" stroke="black" stroke-opacity="0.14"/>
<line x1="7" y1="27.5" x2="501" y2="27.5" stroke="black" stroke-opacity="0.14"/>
<line x1="7" y1="30.5" x2="501" y2="30.5" stroke="black" stroke-opacity="0.14"/>
<line x1="7" y1="33.5" x2="501" y2="33.5" stroke="black" stroke-opacity="0.14"/>
<line x1="7" y1="36.5" x2="501" y2="36.5" stroke="black" stroke-opacity="0.14"/>
<line x1="7" y1="39.5" x2="501" y2="39.5" stroke="black" stroke-opacity="0.14"/>
<line x1="7" y1="42.5" x2="501" y2="42.5" stroke="black" stroke-opacity="0.14"/>
<line x1="7" y1="45.5" x2="501" y2="45.5" stroke="black" stroke-opacity="0.14"/>
<line x1="7" y1="48.5" x2="501" y2="48.5" stroke="black" stroke-opacity="0.14"/>
<line x1="7" y1="51.5" x2="501" y2="51.5" stroke="black" stroke-opacity="0.14"/>
<line x1="7" y1="54.5" x2="501" y2="54.5" stroke="black" stroke-opacity="0.14"/>
<line x1="7" y1="57.5" x2="501" y2="57.5" stroke="black" stroke-opacity="0.14"/>
<line x1="7" y1="60.5" x2="501" y2="60.5" stroke="black" stroke-opacity="0.14"/>
<line x1="7" y1="63.5" x2="501" y2="63.5" stroke="black" stroke-opacity="0.14"/>
<line x1="7" y1="66.5" x2="501" y2="66.5" stroke="black" stroke-opacity="0.14"/>
<line x1="7" y1="69.5" x2="501" y2="69.5" stroke="black" stroke-opacity="0.14"/>
<line x1="7" y1="72.5" x2="501" y2="72.5" stroke="black" stroke-opacity="0.14"/>
<line x1="7" y1="75.5" x2="501" y2="75.5" stroke="black" stroke-opacity="0.14"/>
<line x1="7" y1="78.5" x2="501" y2="78.5" stroke="black" stroke-opacity="0.14"/>
<line x1="7" y1="81.5" x2="501" y2="81.5" stroke="black" stroke-opacity="0.14"/>
<line x1="7" y1="84.5" x2="501" y2="84.5" stroke="black" stroke-opacity="0.14"/>
<line x1="7" y1="87.5" x2="501" y2="87.5" stroke="black" stroke-opacity="0.14"/>
<line x1="7" y1="90.5" x2="501" y2="90.5" stroke="black" stroke-opacity="0.14"/>
<line x1="7" y1="93.5" x2="501" y2="93.5" stroke="black" stroke-opacity="0.14"/>
<line x1="7" y1="96.5" x2="501" y2="96.5" stroke="black" stroke-opacity="0.14"/>
<line x1="7" y1="99.5" x2="501" y2="99.5" stroke="black" stroke-opacity="0.14"/>
<line x1="7" y1="102.5" x2="501" y2="102.5" stroke="black" stroke-opacity="0.14"/>
<path d="M500 9C500 7.89543 500.895 7 502 7H507V104H502C500.895 104 500 103.105 500 102V9Z" fill="#EDDAD4"/>
<line x1="25" y1="19.5" x2="155" y2="19.5" stroke="#AD6048" stroke-width="3"/>
<g filter="url(#filter0_d_304_26)">
<path d="M104 131L104 78H73L73 131L88.5 120.43L104 131Z" fill="#A84D59"/>
</g>
<circle cx="88" cy="81" r="2" fill="#D9D9D9"/>
<line x1="88" y1="81" x2="88" y2="18" stroke="#6D6D6D" stroke-width="2"/>
<ellipse cx="88" cy="74" rx="4" ry="2" fill="#6D6D6D"/>
<path d="M81.2812 114C81.2812 113.906 81.276 113.807 81.2656 113.703C81.2552 113.589 81.25 113.484 81.25 113.391C81.25 112.068 81.4219 110.906 81.7656 109.906C82.1198 108.896 82.5781 108 83.1406 107.219C83.7135 106.438 84.3646 105.74 85.0938 105.125C85.8229 104.51 86.5677 103.932 87.3281 103.391C88.0885 102.849 88.8333 102.323 89.5625 101.812C90.2917 101.292 90.9375 100.74 91.5 100.156C92.0729 99.5625 92.5312 98.9167 92.875 98.2188C93.2292 97.5104 93.4062 96.6927 93.4062 95.7656C93.4062 95.0469 93.2865 94.3906 93.0469 93.7969C92.8073 93.2031 92.474 92.6979 92.0469 92.2812C91.6198 91.8542 91.1146 91.526 90.5312 91.2969C89.9479 91.0677 89.3177 90.9531 88.6406 90.9531C87.8385 90.9531 87.125 91.1094 86.5 91.4219C85.875 91.724 85.3438 92.1042 84.9062 92.5625C84.4792 93.0208 84.151 93.5208 83.9219 94.0625C83.6927 94.6042 83.5781 95.1146 83.5781 95.5938C83.5781 96.0729 83.6458 96.4844 83.7812 96.8281C83.9271 97.1615 84.1146 97.4375 84.3438 97.6562C84.5833 97.875 84.849 98.0365 85.1406 98.1406C85.4427 98.2344 85.7552 98.2812 86.0781 98.2812C86.4323 98.2812 86.776 98.2292 87.1094 98.125C87.4531 98.0208 87.7708 97.875 88.0625 97.6875L88.5781 98.3125C88.4219 98.5521 88.224 98.8021 87.9844 99.0625C87.7448 99.3229 87.474 99.5625 87.1719 99.7812C86.8698 99.9896 86.5365 100.161 86.1719 100.297C85.8177 100.432 85.4375 100.5 85.0312 100.5C84.6042 100.5 84.1875 100.427 83.7812 100.281C83.3854 100.135 83.0312 99.9115 82.7188 99.6094C82.4167 99.2969 82.1719 98.9062 81.9844 98.4375C81.7969 97.9583 81.7031 97.3854 81.7031 96.7188C81.7031 96.0417 81.8594 95.3177 82.1719 94.5469C82.4948 93.776 82.9635 93.0677 83.5781 92.4219C84.1927 91.7656 84.9427 91.224 85.8281 90.7969C86.724 90.3698 87.7448 90.1562 88.8906 90.1562C89.7344 90.1562 90.5469 90.3177 91.3281 90.6406C92.1198 90.9635 92.8177 91.4115 93.4219 91.9844C94.0365 92.5469 94.526 93.224 94.8906 94.0156C95.2656 94.7969 95.4531 95.6458 95.4531 96.5625C95.4531 97.5833 95.3021 98.4635 95 99.2031C94.7083 99.9427 94.3073 100.594 93.7969 101.156C93.2969 101.708 92.7135 102.198 92.0469 102.625C91.3802 103.052 90.6823 103.464 89.9531 103.859C89.2344 104.245 88.5 104.641 87.75 105.047C87.0104 105.453 86.3073 105.917 85.6406 106.438C84.974 106.948 84.3698 107.547 83.8281 108.234C83.2865 108.911 82.8542 109.724 82.5312 110.672C82.6875 110.464 82.8542 110.271 83.0312 110.094C83.2083 109.917 83.4062 109.76 83.625 109.625C83.8542 109.49 84.1042 109.385 84.375 109.312C84.6458 109.24 84.9479 109.203 85.2812 109.203C85.6562 109.203 86.0365 109.26 86.4219 109.375C86.8177 109.479 87.2135 109.615 87.6094 109.781C88.0156 109.948 88.4167 110.13 88.8125 110.328C89.2188 110.516 89.6198 110.693 90.0156 110.859C90.4115 111.026 90.8021 111.167 91.1875 111.281C91.5729 111.385 91.9479 111.438 92.3125 111.438C92.625 111.438 92.9062 111.417 93.1562 111.375C93.4062 111.333 93.6302 111.255 93.8281 111.141C94.0365 111.026 94.224 110.865 94.3906 110.656C94.5573 110.438 94.7188 110.156 94.875 109.812L95.4219 109.938C95.3698 110.396 95.2656 110.865 95.1094 111.344C94.9635 111.823 94.7448 112.26 94.4531 112.656C94.1615 113.052 93.7917 113.375 93.3438 113.625C92.8958 113.875 92.3438 114 91.6875 114C91.2812 114 90.8698 113.927 90.4531 113.781C90.0469 113.625 89.6406 113.438 89.2344 113.219C88.8281 112.99 88.4271 112.745 88.0312 112.484C87.6354 112.214 87.2448 111.969 86.8594 111.75C86.474 111.521 86.099 111.333 85.7344 111.188C85.3698 111.031 85.0156 110.953 84.6719 110.953C84.3385 110.953 84.0417 111.021 83.7812 111.156C83.5208 111.292 83.2917 111.469 83.0938 111.688C82.9062 111.896 82.7448 112.125 82.6094 112.375C82.4844 112.625 82.375 112.865 82.2812 113.094C82.1979 113.312 82.1302 113.51 82.0781 113.688C82.0365 113.854 82.0052 113.958 81.9844 114H81.2812Z" fill="white"/>
<defs>
<filter id="filter0_d_304_26" x="70" y="75" width="39" height="61" filterUnits="userSpaceOnUse" color-interpolation-filters="sRGB">
<feFlood flood-opacity="0" result="BackgroundImageFix"/>
<feColorMatrix in="SourceAlpha" type="matrix" values="0 0 0 0 0 0 0 0 0 0 0 0 0 0 0 0 0 0 127 0" result="hardAlpha"/>
<feOffset dx="1" dy="1"/>
<feGaussianBlur stdDeviation="2"/>
<feComposite in2="hardAlpha" operator="out"/>
<feColorMatrix type="matrix" values="0 0 0 0 0 0 0 0 0 0 0 0 0 0 0 0 0 0 0.25 0"/>
<feBlend mode="normal" in2="BackgroundImageFix" result="effect1_dropShadow_304_26"/>
<feBlend mode="normal" in="SourceGraphic" in2="effect1_dropShadow_304_26" result="shape"/>
</filter>
</defs>
</svg>
