<svg width="507" height="188" viewBox="0 0 507 188" fill="none" xmlns="http://www.w3.org/2000/svg">
<mask id="path-1-inside-1_304_26" fill="white">
<path d="M0 10C0 4.47715 4.47715 0 10 0H507V111H10C4.47717 111 0 106.523 0 101V10Z"/>
</mask>
<path d="M0 10C0 4.47715 4.47715 0 10 0H507V111H10C4.47717 111 0 106.523 0 101V10Z" fill="white"/>
<path d="M-7 10C-7 0.611159 0.611159 -7 10 -7H507V7H10C8.34315 7 7 8.34315 7 10H-7ZM507 118H10C0.611159 118 -7 110.389 -7 101H7C7 102.657 8.34315 104 10 104H507V118ZM10 118C0.611159 118 -7 110.389 -7 101V10C-7 0.611159 0.611159 -7 10 -7V7C8.34315 7 7 8.34315 7 10V101C7 102.657 8.34315 104 10 104V118ZM507 0V111V0Z" fill="#857070" mask="url(#path-1-inside-1_304_26)"/>
<line x1="7" y1="9.5" x2="501" y2="9.50004" stroke="black" stroke-opacity="0.14"/>
<line x1="7" y1="12.5" x2="501" y2="12.5" stroke="black" stroke-opacity="0.14"/>
<line x1="7" y1="15.5" x2="501" y2="15.5" stroke="black" stroke-opacity="0.14"/>
<line x1="7" y1="18.5" x2="501" y2="18.5" stroke="black" stroke-opacity="0.14"/>
<line x1="7" y1="21.5" x2="501" y2="21.5" stroke="black" stroke-opacity="0.14"/>
<line x1="7" y1="24.5" x2="501" y2="24.5" stroke="black" stroke-opacity="0.14"/>
<line x1="7" y1="27.5" x2="501" y2="27.5" stroke="black" stroke-opacity="0.14"/>
<line x1="7" y1="30.5" x2="501" y2="30.5" stroke="black" stroke-opacity="0.14"/>
<line x1="7" y1="33.5" x2="501" y2="33.5" stroke="black" stroke-opacity="0.14"/>
<line x1="7" y1="36.5" x2="501" y2="36.5" stroke="black" stroke-opacity="0.14"/>
<line x1="7" y1="39.5" x2="501" y2="39.5" stroke="black" stroke-opacity="0.14"/>
<line x1="7" y1="42.5" x2="501" y2="42.5" stroke="black" stroke-opacity="0.14"/>
<line x1="7" y1="45.5" x2="501" y2="45.5" stroke="black" stroke-opacity="0.14"/>
<line x1="7" y1="48.5" x2="501" y2="48.5" stroke="black" stroke-opacity="0.14"/>
<line x1="7" y1="51.5" x2="501" y2="51.5" stroke="black" stroke-opacity="0.14"/>
<line x1="7" y1="54.5" x2="501" y2="54.5" stroke="black" stroke-opacity="0.14"/>
<line x1="7" y1="57.5" x2="501" y2="57.5" stroke="black" stroke-opacity="0.14"/>
<line x1="7" y1="60.5" x2="501" y2="60.5" stroke="black" stroke-opacity="0.14"/>
<line x1="7" y1="63.5" x2="501" y2="63.5" stroke="black" stroke-opacity="0.14"/>
<line x1="7" y1="66.5" x2="501" y2="66.5" stroke="black" stroke-opacity="0.14"/>
<line x1="7" y1="69.5" x2="501" y2="69.5" stroke="black" stroke-opacity="0.14"/>
<line x1="7" y1="72.5" x2="501" y2="72.5" stroke="black" stroke-opacity="0.14"/>
<line x1="7" y1="75.5" x2="501" y2="75.5" stroke="black" stroke-opacity="0.14"/>
<line x1="7" y1="78.5" x2="501" y2="78.5" stroke="black" stroke-opacity="0.14"/>
<line x1="7" y1="81.5" x2="501" y2="81.5" stroke="black" stroke-opacity="0.14"/>
<line x1="7" y1="84.5" x2="501" y2="84.5" stroke="black" stroke-opacity="0.14"/>
<line x1="7" y1="87.5" x2="501" y2="87.5" stroke="black" stroke-opacity="0.14"/>
<line x1="7" y1="90.5" x2="501" y2="90.5" stroke="black" stroke-opacity="0.14"/>
<line x1="7" y1="93.5" x2="501" y2="93.5" stroke="black" stroke-opacity="0.14"/>
<line x1="7" y1="96.5" x2="501" y2="96.5" stroke="black" stroke-opacity="0.14"/>
<line x1="7" y1="99.5" x2="501" y2="99.5" stroke="black" stroke-opacity="0.14"/>
<line x1="7" y1="102.5" x2="501" y2="102.5" stroke="black" stroke-opacity="0.14"/>
<path d="M500 9C500 7.89543 500.895 7 502 7H507V104H502C500.895 104 500 103.105 500 102V9Z" fill="#EDDAD4"/>
<line x1="25" y1="71.5" x2="155" y2="71.5" stroke="#AD6048" stroke-width="3"/>
<g filter="url(#filter0_d_304_26)">
<path d="M104 183L104 130H73L73 183L88.5 172.43L104 183Z" fill="#A84D59"/>
</g>
<circle cx="88" cy="133" r="2" fill="#D9D9D9"/>
<line x1="88" y1="133" x2="88" y2="70" stroke="#6D6D6D" stroke-width="2"/>
<ellipse cx="88" cy="126" rx="4" ry="2" fill="#6D6D6D"/>
<path d="M81.0625 146.484C81.0625 145.911 81.1198 145.391 81.2344 144.922C81.3594 144.453 81.5469 144.052 81.7969 143.719C82.0469 143.375 82.3594 143.109 82.7344 142.922C83.1094 142.734 83.5521 142.641 84.0625 142.641C84.6667 142.641 85.2656 142.708 85.8594 142.844C86.4531 142.979 87.0469 143.125 87.6406 143.281C88.2448 143.438 88.8594 143.583 89.4844 143.719C90.1198 143.854 90.776 143.922 91.4531 143.922C91.8906 143.922 92.2656 143.885 92.5781 143.812C92.901 143.729 93.1667 143.635 93.375 143.531C93.6146 143.417 93.8177 143.281 93.9844 143.125L94.375 143.594C93.3542 144.667 92.474 145.688 91.7344 146.656C90.9948 147.615 90.3646 148.531 89.8438 149.406C89.3229 150.271 88.901 151.099 88.5781 151.891C88.2656 152.682 88.0208 153.443 87.8438 154.172C87.6667 154.891 87.5469 155.578 87.4844 156.234C87.4219 156.891 87.3906 157.521 87.3906 158.125C87.3906 159.052 87.4323 159.859 87.5156 160.547C87.6094 161.234 87.7083 161.839 87.8125 162.359C87.9271 162.87 88.026 163.323 88.1094 163.719C88.2031 164.104 88.25 164.469 88.25 164.812C88.25 165.25 88.1354 165.557 87.9062 165.734C87.6875 165.911 87.4115 166 87.0781 166C86.7135 166 86.3854 165.953 86.0938 165.859C85.8125 165.755 85.5677 165.568 85.3594 165.297C85.1615 165.026 85.0052 164.651 84.8906 164.172C84.7865 163.693 84.7344 163.073 84.7344 162.312C84.7344 160.76 84.8854 159.219 85.1875 157.688C85.4896 156.156 85.9271 154.677 86.5 153.25C87.0729 151.823 87.7708 150.474 88.5938 149.203C89.4167 147.932 90.349 146.781 91.3906 145.75C91.2448 145.781 91.0781 145.807 90.8906 145.828C90.7135 145.839 90.5312 145.844 90.3438 145.844C89.9062 145.844 89.4167 145.812 88.875 145.75C88.3333 145.677 87.7812 145.599 87.2188 145.516C86.6562 145.422 86.0938 145.344 85.5312 145.281C84.9792 145.208 84.4688 145.172 84 145.172C83.375 145.172 82.875 145.271 82.5 145.469C82.1354 145.656 81.9219 145.995 81.8594 146.484H81.0625Z" fill="white"/>
<defs>
<filter id="filter0_d_304_26" x="70" y="127" width="39" height="61" filterUnits="userSpaceOnUse" color-interpolation-filters="sRGB">
<feFlood flood-opacity="0" result="BackgroundImageFix"/>
<feColorMatrix in="SourceAlpha" type="matrix" values="0 0 0 0 0 0 0 0 0 0 0 0 0 0 0 0 0 0 127 0" result="hardAlpha"/>
<feOffset dx="1" dy="1"/>
<feGaussianBlur stdDeviation="2"/>
<feComposite in2="hardAlpha" operator="out"/>
<feColorMatrix type="matrix" values="0 0 0 0 0 0 0 0 0 0 0 0 0 0 0 0 0 0 0.25 0"/>
<feBlend mode="normal" in2="BackgroundImageFix" result="effect1_dropShadow_304_26"/>
<feBlend mode="normal" in="SourceGraphic" in2="effect1_dropShadow_304_26" result="shape"/>
</filter>
</defs>
</svg>
