<svg width="507" height="217" viewBox="0 0 507 217" fill="none" xmlns="http://www.w3.org/2000/svg">
<mask id="path-1-inside-1_304_26" fill="white">
<path d="M0 10C0 4.47715 4.47715 0 10 0H507V111H10C4.47717 111 0 106.523 0 101V10Z"/>
</mask>
<path d="M0 10C0 4.47715 4.47715 0 10 0H507V111H10C4.47717 111 0 106.523 0 101V10Z" fill="white"/>
<path d="M-7 10C-7 0.611159 0.611159 -7 10 -7H507V7H10C8.34315 7 7 8.34315 7 10H-7ZM507 118H10C0.611159 118 -7 110.389 -7 101H7C7 102.657 8.34315 104 10 104H507V118ZM10 118C0.611159 118 -7 110.389 -7 101V10C-7 0.611159 0.611159 -7 10 -7V7C8.34315 7 7 8.34315 7 10V101C7 102.657 8.34315 104 10 104V118ZM507 0V111V0Z" fill="#857070" mask="url(#path-1-inside-1_304_26)"/>
<line x1="7" y1="9.5" x2="501" y2="9.50004" stroke="black" stroke-opacity="0.14"/>
<line x1="7" y1="12.5" x2="501" y2="12.5" stroke="black" stroke-opacity="0.14"/>
<line x1="7" y1="15.5" x2="501" y2="15.5" stroke="black" stroke-opacity="0.14"/>
<line x1="7" y1="18.5" x2="501" y2="18.5" stroke="black" stroke-opacity="0.14"/>
<line x1="7" y1="21.5" x2="501" y2="21.5" stroke="black" stroke-opacity="0.14"/>
<line x1="7" y1="24.5" x2="501" y2="24.5" stroke="black" stroke-opacity="0.14"/>
<line x1="7" y1="27.5" x2="501" y2="27.5" stroke="black" stroke-opacity="0.14"/>
<line x1="7" y1="30.5" x2="501" y2="30.5" stroke="black" stroke-opacity="0.14"/>
<line x1="7" y1="33.5" x2="501" y2="33.5" stroke="black" stroke-opacity="0.14"/>
<line x1="7" y1="36.5" x2="501" y2="36.5" stroke="black" stroke-opacity="0.14"/>
<line x1="7" y1="39.5" x2="501" y2="39.5" stroke="black" stroke-opacity="0.14"/>
<line x1="7" y1="42.5" x2="501" y2="42.5" stroke="black" stroke-opacity="0.14"/>
<line x1="7" y1="45.5" x2="501" y2="45.5" stroke="black" stroke-opacity="0.14"/>
<line x1="7" y1="48.5" x2="501" y2="48.5" stroke="black" stroke-opacity="0.14"/>
<line x1="7" y1="51.5" x2="501" y2="51.5" stroke="black" stroke-opacity="0.14"/>
<line x1="7" y1="54.5" x2="501" y2="54.5" stroke="black" stroke-opacity="0.14"/>
<line x1="7" y1="57.5" x2="501" y2="57.5" stroke="black" stroke-opacity="0.14"/>
<line x1="7" y1="60.5" x2="501" y2="60.5" stroke="black" stroke-opacity="0.14"/>
<line x1="7" y1="63.5" x2="501" y2="63.5" stroke="black" stroke-opacity="0.14"/>
<line x1="7" y1="66.5" x2="501" y2="66.5" stroke="black" stroke-opacity="0.14"/>
<line x1="7" y1="69.5" x2="501" y2="69.5" stroke="black" stroke-opacity="0.14"/>
<line x1="7" y1="72.5" x2="501" y2="72.5" stroke="black" stroke-opacity="0.14"/>
<line x1="7" y1="75.5" x2="501" y2="75.5" stroke="black" stroke-opacity="0.14"/>
<line x1="7" y1="78.5" x2="501" y2="78.5" stroke="black" stroke-opacity="0.14"/>
<line x1="7" y1="81.5" x2="501" y2="81.5" stroke="black" stroke-opacity="0.14"/>
<line x1="7" y1="84.5" x2="501" y2="84.5" stroke="black" stroke-opacity="0.14"/>
<line x1="7" y1="87.5" x2="501" y2="87.5" stroke="black" stroke-opacity="0.14"/>
<line x1="7" y1="90.5" x2="501" y2="90.5" stroke="black" stroke-opacity="0.14"/>
<line x1="7" y1="93.5" x2="501" y2="93.5" stroke="black" stroke-opacity="0.14"/>
<line x1="7" y1="96.5" x2="501" y2="96.5" stroke="black" stroke-opacity="0.14"/>
<line x1="7" y1="99.5" x2="501" y2="99.5" stroke="black" stroke-opacity="0.14"/>
<line x1="7" y1="102.5" x2="501" y2="102.5" stroke="black" stroke-opacity="0.14"/>
<path d="M500 9C500 7.89543 500.895 7 502 7H507V104H502C500.895 104 500 103.105 500 102V9Z" fill="#EDDAD4"/>
<line x1="25" y1="100.5" x2="155" y2="100.5" stroke="#AD6048" stroke-width="3"/>
<g filter="url(#filter0_d_304_26)">
<path d="M104 212L104 159H73L73 212L88.5 201.43L104 212Z" fill="#A84D59"/>
</g>
<circle cx="88" cy="162" r="2" fill="#D9D9D9"/>
<line x1="88" y1="162" x2="88" y2="99" stroke="#6D6D6D" stroke-width="2"/>
<ellipse cx="88" cy="155" rx="4" ry="2" fill="#6D6D6D"/>
<path d="M75.125 193.875L78 193.781C78.3958 193.76 78.6823 193.672 78.8594 193.516C79.0365 193.349 79.125 193.062 79.125 192.656V175.797C78.7188 176.005 78.276 176.193 77.7969 176.359C77.3906 176.505 76.9167 176.635 76.375 176.75C75.8333 176.865 75.2552 176.922 74.6406 176.922V176.125C75.2135 176.125 75.7917 175.995 76.375 175.734C76.9583 175.464 77.4948 175.12 77.9844 174.703C78.4844 174.276 78.9167 173.797 79.2812 173.266C79.6562 172.724 79.9219 172.182 80.0781 171.641H81.5156V192.656C81.5156 193.062 81.6042 193.349 81.7812 193.516C81.9583 193.672 82.2448 193.76 82.6406 193.781L85.0469 193.875V195H75.125V193.875ZM95.2812 194.203C96.1562 194.203 96.8802 193.901 97.4531 193.297C98.0365 192.682 98.4948 191.87 98.8281 190.859C99.1719 189.849 99.4115 188.693 99.5469 187.391C99.6823 186.078 99.75 184.719 99.75 183.312C99.75 182.385 99.7188 181.474 99.6562 180.578C99.6042 179.672 99.5104 178.818 99.375 178.016C99.2396 177.203 99.0573 176.458 98.8281 175.781C98.6094 175.094 98.3333 174.505 98 174.016C97.6667 173.516 97.276 173.13 96.8281 172.859C96.3802 172.578 95.8646 172.438 95.2812 172.438C94.6875 172.438 94.1667 172.578 93.7188 172.859C93.2708 173.13 92.8802 173.516 92.5469 174.016C92.2135 174.505 91.9323 175.094 91.7031 175.781C91.4844 176.458 91.3073 177.203 91.1719 178.016C91.0365 178.818 90.9375 179.672 90.875 180.578C90.8229 181.474 90.7969 182.385 90.7969 183.312C90.7969 184.719 90.8646 186.078 91 187.391C91.1354 188.693 91.3698 189.849 91.7031 190.859C92.0469 191.87 92.5052 192.682 93.0781 193.297C93.6615 193.901 94.3958 194.203 95.2812 194.203ZM95.2812 195C94.0729 195 93.026 194.708 92.1406 194.125C91.2656 193.531 90.5365 192.719 89.9531 191.688C89.3698 190.646 88.9375 189.411 88.6562 187.984C88.375 186.557 88.2344 185 88.2344 183.312C88.2344 181.635 88.375 180.083 88.6562 178.656C88.9375 177.229 89.3698 176 89.9531 174.969C90.5365 173.927 91.2656 173.115 92.1406 172.531C93.026 171.938 94.0729 171.641 95.2812 171.641C96.4792 171.641 97.5208 171.938 98.4062 172.531C99.2917 173.115 100.021 173.927 100.594 174.969C101.177 176 101.609 177.229 101.891 178.656C102.172 180.083 102.312 181.635 102.312 183.312C102.312 185 102.172 186.557 101.891 187.984C101.609 189.411 101.177 190.646 100.594 191.688C100.021 192.719 99.2917 193.531 98.4062 194.125C97.5208 194.708 96.4792 195 95.2812 195Z" fill="white"/>
<defs>
<filter id="filter0_d_304_26" x="70" y="156" width="39" height="61" filterUnits="userSpaceOnUse" color-interpolation-filters="sRGB">
<feFlood flood-opacity="0" result="BackgroundImageFix"/>
<feColorMatrix in="SourceAlpha" type="matrix" values="0 0 0 0 0 0 0 0 0 0 0 0 0 0 0 0 0 0 127 0" result="hardAlpha"/>
<feOffset dx="1" dy="1"/>
<feGaussianBlur stdDeviation="2"/>
<feComposite in2="hardAlpha" operator="out"/>
<feColorMatrix type="matrix" values="0 0 0 0 0 0 0 0 0 0 0 0 0 0 0 0 0 0 0.25 0"/>
<feBlend mode="normal" in2="BackgroundImageFix" result="effect1_dropShadow_304_26"/>
<feBlend mode="normal" in="SourceGraphic" in2="effect1_dropShadow_304_26" result="shape"/>
</filter>
</defs>
</svg>
