<svg width="507" height="128" viewBox="0 0 507 128" fill="none" xmlns="http://www.w3.org/2000/svg">
<mask id="path-1-inside-1_304_26" fill="white">
<path d="M0 10C0 4.47715 4.47715 0 10 0H507V111H10C4.47717 111 0 106.523 0 101V10Z"/>
</mask>
<path d="M0 10C0 4.47715 4.47715 0 10 0H507V111H10C4.47717 111 0 106.523 0 101V10Z" fill="white"/>
<path d="M-7 10C-7 0.611159 0.611159 -7 10 -7H507V7H10C8.34315 7 7 8.34315 7 10H-7ZM507 118H10C0.611159 118 -7 110.389 -7 101H7C7 102.657 8.34315 104 10 104H507V118ZM10 118C0.611159 118 -7 110.389 -7 101V10C-7 0.611159 0.611159 -7 10 -7V7C8.34315 7 7 8.34315 7 10V101C7 102.657 8.34315 104 10 104V118ZM507 0V111V0Z" fill="#857070" mask="url(#path-1-inside-1_304_26)"/>
<line x1="7" y1="9.5" x2="501" y2="9.50004" stroke="black" stroke-opacity="0.14"/>
<line x1="7" y1="12.5" x2="501" y2="12.5" stroke="black" stroke-opacity="0.14"/>
<line x1="7" y1="15.5" x2="501" y2="15.5" stroke="black" stroke-opacity="0.14"/>
<line x1="7" y1="18.5" x2="501" y2="18.5" stroke="black" stroke-opacity="0.14"/>
<line x1="7" y1="21.5" x2="501" y2="21.5" stroke="black" stroke-opacity="0.14"/>
<line x1="7" y1="24.5" x2="501" y2="24.5" stroke="black" stroke-opacity="0.14"/>
<line x1="7" y1="27.5" x2="501" y2="27.5" stroke="black" stroke-opacity="0.14"/>
<line x1="7" y1="30.5" x2="501" y2="30.5" stroke="black" stroke-opacity="0.14"/>
<line x1="7" y1="33.5" x2="501" y2="33.5" stroke="black" stroke-opacity="0.14"/>
<line x1="7" y1="36.5" x2="501" y2="36.5" stroke="black" stroke-opacity="0.14"/>
<line x1="7" y1="39.5" x2="501" y2="39.5" stroke="black" stroke-opacity="0.14"/>
<line x1="7" y1="42.5" x2="501" y2="42.5" stroke="black" stroke-opacity="0.14"/>
<line x1="7" y1="45.5" x2="501" y2="45.5" stroke="black" stroke-opacity="0.14"/>
<line x1="7" y1="48.5" x2="501" y2="48.5" stroke="black" stroke-opacity="0.14"/>
<line x1="7" y1="51.5" x2="501" y2="51.5" stroke="black" stroke-opacity="0.14"/>
<line x1="7" y1="54.5" x2="501" y2="54.5" stroke="black" stroke-opacity="0.14"/>
<line x1="7" y1="57.5" x2="501" y2="57.5" stroke="black" stroke-opacity="0.14"/>
<line x1="7" y1="60.5" x2="501" y2="60.5" stroke="black" stroke-opacity="0.14"/>
<line x1="7" y1="63.5" x2="501" y2="63.5" stroke="black" stroke-opacity="0.14"/>
<line x1="7" y1="66.5" x2="501" y2="66.5" stroke="black" stroke-opacity="0.14"/>
<line x1="7" y1="69.5" x2="501" y2="69.5" stroke="black" stroke-opacity="0.14"/>
<line x1="7" y1="72.5" x2="501" y2="72.5" stroke="black" stroke-opacity="0.14"/>
<line x1="7" y1="75.5" x2="501" y2="75.5" stroke="black" stroke-opacity="0.14"/>
<line x1="7" y1="78.5" x2="501" y2="78.5" stroke="black" stroke-opacity="0.14"/>
<line x1="7" y1="81.5" x2="501" y2="81.5" stroke="black" stroke-opacity="0.14"/>
<line x1="7" y1="84.5" x2="501" y2="84.5" stroke="black" stroke-opacity="0.14"/>
<line x1="7" y1="87.5" x2="501" y2="87.5" stroke="black" stroke-opacity="0.14"/>
<line x1="7" y1="90.5" x2="501" y2="90.5" stroke="black" stroke-opacity="0.14"/>
<line x1="7" y1="93.5" x2="501" y2="93.5" stroke="black" stroke-opacity="0.14"/>
<line x1="7" y1="96.5" x2="501" y2="96.5" stroke="black" stroke-opacity="0.14"/>
<line x1="7" y1="99.5" x2="501" y2="99.5" stroke="black" stroke-opacity="0.14"/>
<line x1="7" y1="102.5" x2="501" y2="102.5" stroke="black" stroke-opacity="0.14"/>
<path d="M500 9C500 7.89543 500.895 7 502 7H507V104H502C500.895 104 500 103.105 500 102V9Z" fill="#EDDAD4"/>
<line x1="25" y1="11.5" x2="155" y2="11.5" stroke="#AD6048" stroke-width="3"/>
<g filter="url(#filter0_d_304_26)">
<path d="M104 123L104 70H73L73 123L88.5 112.43L104 123Z" fill="#A84D59"/>
</g>
<circle cx="88" cy="73" r="2" fill="#D9D9D9"/>
<line x1="88" y1="73" x2="88" y2="10" stroke="#6D6D6D" stroke-width="2"/>
<ellipse cx="88" cy="66" rx="4" ry="2" fill="#6D6D6D"/>
<path d="M84.125 102.875L87 102.781C87.3958 102.76 87.6823 102.672 87.8594 102.516C88.0365 102.349 88.125 102.062 88.125 101.656V84.7969C87.7188 85.0052 87.276 85.1927 86.7969 85.3594C86.3906 85.5052 85.9167 85.6354 85.375 85.75C84.8333 85.8646 84.2552 85.9219 83.6406 85.9219V85.125C84.2135 85.125 84.7917 84.9948 85.375 84.7344C85.9583 84.4635 86.4948 84.1198 86.9844 83.7031C87.4844 83.276 87.9167 82.7969 88.2812 82.2656C88.6562 81.724 88.9219 81.1823 89.0781 80.6406H90.5156V101.656C90.5156 102.062 90.6042 102.349 90.7812 102.516C90.9583 102.672 91.2448 102.76 91.6406 102.781L94.0469 102.875V104H84.125V102.875Z" fill="white"/>
<defs>
<filter id="filter0_d_304_26" x="70" y="67" width="39" height="61" filterUnits="userSpaceOnUse" color-interpolation-filters="sRGB">
<feFlood flood-opacity="0" result="BackgroundImageFix"/>
<feColorMatrix in="SourceAlpha" type="matrix" values="0 0 0 0 0 0 0 0 0 0 0 0 0 0 0 0 0 0 127 0" result="hardAlpha"/>
<feOffset dx="1" dy="1"/>
<feGaussianBlur stdDeviation="2"/>
<feComposite in2="hardAlpha" operator="out"/>
<feColorMatrix type="matrix" values="0 0 0 0 0 0 0 0 0 0 0 0 0 0 0 0 0 0 0.25 0"/>
<feBlend mode="normal" in2="BackgroundImageFix" result="effect1_dropShadow_304_26"/>
<feBlend mode="normal" in="SourceGraphic" in2="effect1_dropShadow_304_26" result="shape"/>
</filter>
</defs>
</svg>
