<svg width="647" height="861" viewBox="0 0 647 861" fill="none" xmlns="http://www.w3.org/2000/svg">
<g filter="url(#filter0_d_97_9)">
<rect x="11" y="62" width="523" height="786" rx="3" fill="#857070"/>
</g>
<path d="M510 74.4946L528.789 66L531 841.506L510 851V74.4946Z" fill="#D9D9D9"/>
<path d="M17.5992 66L9 79H520.401L529 66H17.5992Z" fill="#D9D9D9"/>
<path d="M18 63V65C18 65.5523 17.5523 66 17 66H15C14.4477 66 14 65.5523 14 65V63C14 62.4477 14.4477 62 15 62H17C17.5523 62 18 62.4477 18 63Z" fill="#49464E"/>
<g filter="url(#filter1_d_97_9)">
<rect x="13" y="74.5134" width="505" height="778" rx="3" fill="#857070"/>
</g>
<path d="M182.104 414.885C180.84 415.085 179.471 415.173 177.998 415.147C172.08 414.875 166.933 412.925 162.557 409.298C158.266 405.658 154.754 400.944 152.023 395.156C149.363 389.27 147.492 382.914 146.411 376.087C145.503 370.356 145.438 364.491 146.216 358.493C147.079 352.481 148.626 346.707 150.86 341.169C153.093 335.632 155.883 330.611 159.23 326.106C162.648 321.504 166.46 317.747 170.664 314.835C174.939 311.825 179.479 309.94 184.283 309.179C188.413 308.525 191.875 308.84 194.671 310.126C197.453 311.327 199.647 313.182 201.254 315.692C202.848 318.118 203.892 320.89 204.386 324.009C204.867 327.043 204.806 330.206 204.204 333.498C203.673 336.692 202.646 339.749 201.121 342.669C199.596 345.589 197.612 348.063 195.169 350.092C192.712 352.036 189.84 353.268 186.553 353.789C184.952 354.043 183.142 354.07 181.123 353.871C180.409 353.725 180.032 353.526 179.992 353.273C179.925 352.852 180.397 352.561 181.409 352.401C181.914 352.321 182.3 352.303 182.566 352.347C183.534 352.453 184.439 352.439 185.281 352.306C187.641 351.932 189.797 350.813 191.748 348.949C193.783 347.071 195.492 344.77 196.875 342.046C198.258 339.321 199.228 336.446 199.786 333.42C200.33 330.31 200.382 327.364 199.941 324.583C199.381 321.043 197.917 318.078 195.552 315.688C193.186 313.298 189.681 312.169 185.036 312.3C184.601 312.282 184.131 312.313 183.625 312.393C183.106 312.389 182.636 312.42 182.215 312.487C178.169 313.128 174.381 314.851 170.851 317.656C167.392 320.364 164.32 323.875 161.633 328.188C159.018 332.404 156.875 337.149 155.205 342.425C153.536 347.701 152.418 353.191 151.853 358.896C151.359 364.504 151.545 370.047 152.413 375.525C153.454 382.099 155.116 388.23 157.399 393.916C159.669 399.518 162.592 404.066 166.17 407.56C169.831 411.04 174.18 412.857 179.215 413.01C179.65 413.028 180.078 413.003 180.499 412.936C180.934 412.954 181.32 412.936 181.657 412.882C185.871 412.215 188.676 409.74 190.071 405.459C191.551 401.164 191.837 396.151 190.929 390.419C190.462 387.47 189.729 384.475 188.729 381.437C185.917 382.228 183.145 383.272 180.413 384.569C177.765 385.852 175.144 387.304 172.549 388.924C172.394 389.035 172.19 389.111 171.937 389.151C171.516 389.218 171.145 389.06 170.825 388.679C170.59 388.284 170.426 387.792 170.332 387.202C170.239 386.612 170.279 386.044 170.451 385.498C170.611 384.868 170.972 384.422 171.535 384.16C174.383 382.5 177.283 381.176 180.237 380.19C183.192 379.204 186.228 378.464 189.346 377.97C192.718 377.436 196.178 377.19 199.727 377.233C203.36 377.262 207.082 377.58 210.893 378.186C212.393 378.38 213.189 378.772 213.283 379.362C213.31 379.531 213.07 379.655 212.564 379.735C212.143 379.802 211.28 379.809 209.976 379.757C207.496 379.372 205.007 379.204 202.509 379.254C200.096 379.291 197.709 379.496 195.349 379.87C194.507 380.004 193.67 380.179 192.841 380.397C191.998 380.53 191.162 380.706 190.333 380.924C192.837 385.279 194.416 389.522 195.07 393.652C195.951 399.214 195.19 403.957 192.788 407.88C190.385 411.803 186.824 414.138 182.104 414.885ZM218.153 392.069C217.057 392.243 216.043 391.842 215.111 390.866C214.263 389.877 213.688 388.154 213.385 385.696C213.198 384.517 213.228 382.525 213.475 379.721C213.709 376.833 213.938 373.643 214.163 370.151C214.472 366.647 214.667 363.246 214.75 359.95C214.917 356.64 214.84 353.974 214.52 351.951C214.373 351.024 214.169 350.279 213.907 349.716C213.631 349.068 213.157 348.798 212.482 348.905C211.977 348.985 211.553 349.311 211.212 349.883C210.857 350.372 210.502 350.86 210.148 351.348C209.678 352.2 209.401 352.633 209.317 352.646C209.232 352.659 209.17 352.54 209.13 352.287C208.97 351.275 209.176 350.12 209.747 348.819C210.39 347.422 211.259 346.636 212.355 346.463C213.703 346.249 214.779 346.77 215.583 348.025C216.373 349.196 216.955 350.961 217.329 353.321C217.743 355.934 217.915 358.93 217.846 362.311C217.776 365.691 217.631 368.868 217.411 371.84C217.287 373.242 217.253 374.932 217.307 376.911C217.361 378.889 217.535 380.806 217.829 382.66C218.082 384.261 218.422 385.59 218.849 386.645C219.346 387.603 220.016 388.016 220.859 387.882C221.533 387.775 222.274 387.269 223.081 386.364C223.959 385.361 224.918 383.783 225.96 381.631C227.471 378.627 228.712 375.277 229.681 371.581C230.722 367.788 231.69 364.351 232.585 361.272C232.903 360.012 233.442 359.322 234.201 359.202C236.139 358.895 237.275 359.795 237.609 361.902C237.863 363.503 237.93 365.566 237.811 368.091C237.764 370.517 237.914 372.826 238.261 375.018C238.888 378.979 239.96 380.839 241.477 380.599C242.236 380.479 242.921 379.895 243.533 378.848C244.215 377.703 244.586 377.04 244.643 376.858C245.055 376.188 245.472 375.819 245.894 375.753C246.399 375.672 246.699 375.927 246.792 376.517C246.966 377.613 246.521 378.893 245.457 380.358C244.393 381.822 243.144 382.668 241.711 382.895C240.363 383.108 239.194 382.818 238.204 382.025C237.285 381.133 236.362 379.941 235.434 378.446C234.369 376.628 233.722 375.002 233.495 373.569C233.268 372.136 232.964 370.759 232.582 369.437C232.312 371.553 231.641 373.863 230.569 376.365C229.581 378.855 228.369 381.293 226.932 383.68C225.567 385.97 224.1 387.887 222.53 389.432C220.96 390.976 219.501 391.856 218.153 392.069ZM259.249 388.282C256.215 388.762 253.28 387.413 250.443 384.233C247.678 380.956 245.681 375.441 244.453 367.687C243.652 362.63 243.643 358.484 244.427 355.25C245.197 351.931 246.396 349.408 248.024 347.682C249.651 345.955 251.307 344.959 252.993 344.692C254.679 344.425 256.205 344.788 257.572 345.781C258.925 346.689 259.769 348.197 260.103 350.304C260.423 352.327 260.173 354.57 259.354 357.032C258.521 359.411 257.409 361.66 256.017 363.782C254.696 365.805 253.281 367.239 251.773 368.082C251.463 368.304 251.055 368.455 250.549 368.535C250.212 368.589 250.023 368.489 249.983 368.236C249.876 367.562 250.43 366.697 251.645 365.64C253.144 364.193 254.465 362.17 255.609 359.57C256.739 356.885 257.157 354.616 256.863 352.761C256.69 351.666 256.303 350.863 255.704 350.353C255.092 349.759 254.448 349.515 253.774 349.622C252.51 349.822 251.279 351.054 250.082 353.317C248.957 355.482 248.437 359.021 248.524 363.932C248.569 365.307 248.607 366.64 248.639 367.931C248.741 369.124 248.886 370.311 249.073 371.491C249.821 376.211 251.124 379.806 252.984 382.276C254.831 384.661 256.934 385.667 259.294 385.294C261.317 384.973 263.406 383.433 265.56 380.673C267.702 377.828 269.587 373.641 271.217 368.113C271.594 366.671 272.161 365.89 272.92 365.77C273.425 365.69 273.732 365.987 273.838 366.661C273.932 367.251 273.863 367.91 273.633 368.638C272.296 374.379 270.302 378.971 267.651 382.415C264.999 385.859 262.199 387.814 259.249 388.282ZM276.262 388.309C274.66 388.562 273.491 388.272 272.754 387.438C272.337 386.986 272.082 386.465 271.988 385.875C271.882 385.201 272.05 384.353 272.493 383.333C272.936 382.312 273.856 381.303 275.253 380.304C275.408 380.193 275.98 379.713 276.969 378.866C278.042 378.004 278.699 377.512 278.938 377.387C278.139 375.613 276.96 373.899 275.402 372.245C273.831 370.507 272.346 368.496 270.948 366.212C269.549 363.928 268.647 360.96 268.242 357.309C267.863 353.827 268.316 350.688 269.601 347.893C270.886 345.097 272.709 342.692 275.068 340.677C277.511 338.648 280.119 337.112 282.891 336.068C283.539 335.793 284.235 335.553 284.98 335.349C285.725 335.144 286.477 334.982 287.236 334.862C289.343 334.528 291.237 334.487 292.919 334.739C294.684 334.978 296.251 335.594 297.618 336.587C299.069 337.567 299.908 338.773 300.135 340.206C300.281 341.133 300.133 342.107 299.69 343.127C299.575 343.491 299.376 343.868 299.092 344.259C298.808 344.649 298.413 344.885 297.908 344.965C297.571 345.018 297.362 344.792 297.282 344.286C297.215 343.865 297.213 343.304 297.274 342.603C297.42 341.888 297.522 341.44 297.58 341.258C297.637 341.076 297.633 340.775 297.566 340.353C297.419 339.426 297.046 338.708 296.447 338.198C295.737 337.533 294.736 337.216 293.446 337.248C292.239 337.266 291.13 337.355 290.118 337.515C287.169 337.983 284.388 339.244 281.776 341.299C279.164 343.354 276.962 345.82 275.171 348.695C273.451 351.473 272.39 354.32 271.988 357.235C271.855 358.033 271.807 358.818 271.843 359.59C271.865 360.278 271.93 360.959 272.037 361.633C272.504 364.583 273.625 367.3 275.401 369.783C277.177 372.267 278.75 374.566 280.122 376.681C282.282 375.043 284.249 373.825 286.023 373.025C286.263 372.901 286.467 372.826 286.635 372.799C286.888 372.759 287.057 372.732 287.141 372.719C287.562 372.652 287.793 372.745 287.833 372.998C287.9 373.419 287.419 373.927 286.39 374.522C286.15 374.647 285.558 375 284.614 375.581C283.669 376.163 282.54 376.946 281.228 377.932C281.822 378.961 282.2 379.981 282.36 380.992C282.52 382.004 282.421 383.013 282.062 384.02C281.703 385.028 280.939 385.926 279.768 386.716C278.61 387.591 277.442 388.122 276.262 388.309ZM276.1 384.835C276.278 385.412 276.677 385.478 277.298 385.034C278.003 384.577 278.668 383.867 279.293 382.904C279.919 381.941 280.164 381.038 280.031 380.195C280.004 380.026 279.977 379.858 279.951 379.689C279.995 379.423 279.955 379.17 279.831 378.931C278.686 379.89 277.724 380.906 276.944 381.98C276.15 382.97 275.869 383.921 276.1 384.835ZM315.528 383.256C314.432 383.429 313.571 383.177 312.945 382.498C312.417 381.891 312.1 381.25 311.993 380.576C311.779 379.227 312.149 377.743 313.102 376.123C313.443 375.551 313.927 374.783 314.552 373.82C315.163 372.773 315.598 371.97 315.855 371.411C314.519 370.067 312.824 368.91 310.769 367.94C308.715 366.969 306.649 365.655 304.572 363.997C302.69 362.48 301.001 360.545 299.505 358.19C297.996 355.75 297.054 353.351 296.68 350.991C296.24 348.21 296.451 345.455 297.315 342.726C298.179 339.997 299.391 337.559 300.952 335.411C302.654 333.068 304.634 331.113 306.891 329.546C309.135 327.894 311.564 326.862 314.176 326.448C315.946 326.167 317.741 326.315 319.56 326.891C321.379 327.467 322.442 328.724 322.749 330.663C323.11 332.938 322.784 334.156 321.773 334.316C321.351 334.383 320.99 334.008 320.688 333.192C320.536 332.784 320.428 332.369 320.361 331.948C320.281 331.442 320.227 331.105 320.201 330.937C320.067 330.094 319.574 329.437 318.722 328.968C317.857 328.413 316.961 328.21 316.034 328.357C314.095 328.664 312.066 329.763 309.947 331.654C307.827 333.544 306.127 335.628 304.846 337.904C303.578 340.265 302.652 342.874 302.068 345.731C301.47 348.504 301.365 351.113 301.752 353.557C302.233 356.591 303.321 359.097 305.016 361.075C306.712 363.053 308.62 364.738 310.742 366.13C312.947 367.508 314.935 368.878 316.706 370.239C317.318 369.192 317.978 368.18 318.687 367.204C319.481 366.214 320.217 365.406 320.896 364.781C321.503 364.252 321.933 363.968 322.186 363.928C322.439 363.888 322.585 363.995 322.625 364.247C322.692 364.669 322.393 365.235 321.728 365.945C321.586 366.14 321.16 366.726 320.451 367.702C319.813 368.581 319.039 369.697 318.13 371.05C318.925 371.702 319.599 372.416 320.154 373.192C320.709 373.968 321.067 374.862 321.227 375.873C321.441 377.222 320.902 378.733 319.612 380.406C318.322 382.079 316.96 383.029 315.528 383.256ZM316.378 379.622C316.968 379.529 317.429 378.894 317.761 377.718C318.191 376.613 318.325 375.555 318.165 374.544C318.085 374.038 317.928 373.588 317.692 373.193C317.457 372.799 317.29 372.566 317.193 372.495C316.652 373.444 316.167 374.472 315.737 375.576C315.378 376.584 315.259 377.467 315.379 378.225C315.539 379.237 315.872 379.702 316.378 379.622Z" fill="white"/>
<path d="M249.682 259.841C249.278 259.705 249.184 259.314 249.4 258.667C249.59 258.1 250.022 257.48 250.698 256.806C251.373 256.132 252.116 255.661 252.925 255.392C253.708 255.204 254.545 254.989 255.436 254.747C256.218 254.559 256.988 254.412 257.743 254.305C257.717 254.116 257.771 253.819 257.906 253.414C258.123 252.767 258.434 252.511 258.838 252.646C259.081 252.727 259.35 253.133 259.646 253.861C267.123 252.494 274.126 252.002 280.656 252.388L280.778 252.024C281.536 249.758 281.633 247.451 281.069 245.102C280.586 242.781 279.792 240.311 278.689 237.692C277.586 235.073 276.509 232.239 275.46 229.188C274.492 226.165 273.795 222.872 273.367 219.31C273.047 215.693 273.389 211.713 274.392 207.37C274.474 206.857 274.596 206.358 274.758 205.873C274.921 205.387 275.083 204.902 275.246 204.416C276.979 199.237 279.722 194.936 283.477 191.513C287.232 188.09 291.472 185.505 296.196 183.756C301.028 181.954 305.914 180.934 310.852 180.696C314.792 180.485 318.988 181.124 323.438 182.613C325.057 183.155 326.554 183.79 327.929 184.521C331.947 186.765 334.468 189.183 335.49 191.775C336.513 194.366 336.685 196.674 336.008 198.697C335.494 200.234 334.629 201.475 333.414 202.418C332.198 203.361 331.429 203.778 331.105 203.67C330.862 203.589 330.795 203.386 330.903 203.063C330.958 202.901 331.079 202.671 331.268 202.375C331.566 202.024 331.822 201.66 332.039 201.283C332.498 200.717 332.85 200.204 333.093 199.746C333.336 199.287 333.539 198.815 333.702 198.33C334.568 195.74 333.991 193.432 331.969 191.406C330.055 189.326 327.763 187.84 325.093 186.946C324.769 186.838 324.405 186.716 324.001 186.58C323.596 186.445 323.178 186.35 322.746 186.296C317.404 185.318 311.966 185.568 306.433 187.046C300.899 188.524 295.742 191.163 290.962 194.962C286.289 198.708 282.425 203.534 279.369 209.44C279.098 209.979 278.828 210.519 278.557 211.058C278.368 211.625 278.192 212.151 278.029 212.636C276.757 216.439 276.402 220.19 276.964 223.888C277.554 227.504 278.494 231.013 279.786 234.415C281.158 237.843 282.436 241.151 283.62 244.336C284.83 247.441 285.394 250.329 285.31 253C287.037 253.218 288.682 253.544 290.247 253.977C291.812 254.411 293.309 254.912 294.738 255.48C295.817 256.021 296.275 256.534 296.113 257.02C295.95 257.505 295.06 257.477 293.441 256.936C292.308 256.557 291.027 256.218 289.597 255.919C288.194 255.54 286.657 255.295 284.984 255.186C284.983 255.455 284.942 255.712 284.861 255.954C284.78 256.197 284.712 256.4 284.658 256.561C284.387 257.371 283.982 258.18 283.441 258.989C281.306 261.874 278.606 263.625 275.34 264.241C272.074 264.858 269.025 264.693 266.192 263.745C263.441 262.825 261.324 261.487 259.842 259.731C259.303 259.191 258.845 258.542 258.468 257.786C257.227 258.001 255.958 258.296 254.662 258.673C253.286 259.022 251.949 259.385 250.654 259.761C250.249 259.895 249.925 259.922 249.682 259.841ZM265.831 261.195C268.178 261.98 270.741 261.983 273.522 261.204C276.275 260.505 278.355 258.457 279.762 255.058C273.798 255.132 267.429 255.881 260.654 257.303C261.516 259.031 263.241 260.328 265.831 261.195ZM301.002 269.049C298.089 268.074 296.109 265.522 295.061 261.392C294.121 257.208 294.897 251.394 297.388 243.949C299.013 239.093 300.919 235.412 303.108 232.905C305.324 230.317 307.552 228.633 309.792 227.853C312.033 227.073 313.963 226.954 315.581 227.495C317.199 228.037 318.386 229.064 319.139 230.576C319.92 232.007 319.972 233.734 319.295 235.757C318.646 237.699 317.389 239.573 315.525 241.379C313.688 243.104 311.662 244.586 309.448 245.824C307.342 247.009 305.425 247.628 303.698 247.68C303.32 247.733 302.889 247.679 302.403 247.517C302.079 247.408 301.958 247.233 302.039 246.99C302.256 246.343 303.147 245.831 304.713 245.455C306.71 244.863 308.816 243.678 311.031 241.9C313.273 240.041 314.692 238.221 315.287 236.44C315.639 235.388 315.667 234.498 315.371 233.769C315.103 232.959 314.644 232.446 313.997 232.229C312.783 231.823 311.123 232.347 309.017 233.802C307.018 235.203 304.923 238.102 302.733 242.498C302.138 243.738 301.556 244.939 300.988 246.098C300.528 247.204 300.109 248.323 299.729 249.456C298.213 253.988 297.71 257.779 298.219 260.829C298.755 263.798 300.156 265.661 302.422 266.419C304.364 267.069 306.928 266.667 310.114 265.214C313.327 263.679 316.933 260.837 320.931 256.685C321.931 255.58 322.795 255.149 323.523 255.393C324.009 255.556 324.143 255.96 323.927 256.608C323.737 257.174 323.372 257.727 322.832 258.266C318.995 262.741 315.106 265.894 311.164 267.725C307.222 269.555 303.835 269.996 301.002 269.049ZM339.997 282.096C338.945 281.744 338.231 280.785 337.855 279.22C337.506 277.573 337.967 274.848 339.24 271.045C340.242 268.051 341.581 264.855 343.258 261.456C344.962 257.977 346.693 254.552 348.451 251.181C350.29 247.837 351.912 244.871 353.318 242.282C354.752 239.612 355.685 237.629 356.118 236.335C356.876 234.069 356.567 232.706 355.192 232.245C353.897 231.812 352.345 232.013 350.536 232.847C348.808 233.709 347.026 234.867 345.189 236.322C343.433 237.804 341.813 239.287 340.327 240.769C338.949 242.198 338.003 243.276 337.49 244.004C335.301 246.781 333.436 249.666 331.894 252.66C330.38 255.573 329.067 258.688 327.957 262.006C327.497 263.381 327.064 264.811 326.657 266.295C326.332 267.806 325.952 269.343 325.518 270.908C325.41 271.771 324.828 272.702 323.775 273.699C322.829 274.642 321.952 274.979 321.143 274.708C320.576 274.518 320.212 273.992 320.052 273.128C319.891 272.264 319.824 271.522 319.852 270.901C319.853 269.822 319.949 268.729 320.139 267.623C320.356 266.436 320.519 265.411 320.628 264.547C321.172 261.04 321.769 257.506 322.421 253.944C323.1 250.302 323.536 246.714 323.728 243.179C323.784 242.208 323.771 241.169 323.692 240.062C323.72 238.902 323.478 237.876 322.966 236.985C322.859 236.769 322.67 236.526 322.401 236.256C322.158 235.905 322.064 235.648 322.118 235.487C322.226 235.163 322.726 235.15 323.616 235.448C324.587 235.773 325.396 236.583 326.042 237.879C326.688 239.175 327.145 240.768 327.413 242.657C327.707 245.005 327.798 247.42 327.688 249.903C327.658 252.412 327.615 254.423 327.559 255.934C329.02 253.183 330.412 250.769 331.737 248.693C332.953 246.94 334.493 244.891 336.358 242.546C338.25 240.119 340.357 237.855 342.68 235.753C345.03 233.57 347.501 231.967 350.093 230.944C352.712 229.841 355.356 229.736 358.027 230.63C361.911 231.929 363.095 234.845 361.579 239.377C360.794 241.723 359.523 244.178 357.766 246.739C356.036 249.22 354.293 251.471 352.537 253.493C350.861 255.542 349.713 256.957 349.091 257.739C348.307 258.737 347.348 260.125 346.213 261.905C345.158 263.712 344.117 265.613 343.089 267.609C342.143 269.632 341.371 271.533 340.776 273.313C340.261 274.851 339.99 276.2 339.962 277.36C340.041 278.467 340.486 279.155 341.295 279.426C342.104 279.697 342.954 279.576 343.845 279.065C344.764 278.472 345.533 277.92 346.154 277.408C346.857 276.923 347.14 276.883 347.005 277.287C346.76 278.555 345.855 279.782 344.288 280.968C342.803 282.18 341.372 282.556 339.997 282.096ZM353.585 306.484C352.776 306.213 352.102 305.403 351.564 304.053C351.08 302.811 350.771 301.178 350.639 299.154C350.4 295.835 350.579 292.476 351.177 289.076C351.747 285.758 352.574 282.48 353.657 279.243C354.848 275.682 356.255 272.284 357.878 269.048C359.501 265.811 361.056 262.912 362.543 260.35C363.597 258.544 364.773 256.642 366.071 254.647C367.368 252.652 368.476 251.088 369.395 249.955C368.883 249.874 368.019 249.9 366.805 250.033C365.59 250.167 364.335 250.287 363.04 250.393C361.825 250.527 360.813 250.458 360.004 250.188C358.79 249.781 358.414 248.891 358.874 247.515C359.118 246.787 359.577 246.22 360.252 245.816C361.008 245.439 361.845 245.225 362.762 245.172C364.625 244.985 366.581 245.054 368.631 245.381C370.709 245.626 372.139 245.654 372.922 245.466L378.758 238.511C379.353 237.81 380.353 236.705 381.757 235.195C383.27 233.632 384.945 231.988 386.782 230.263C388.7 228.565 390.51 227.056 392.211 225.736C393.535 224.739 394.723 224.011 395.776 223.554C396.856 223.015 397.881 222.909 398.852 223.233C400.309 223.721 400.848 224.531 400.469 225.664C400.252 226.311 399.644 227.188 398.644 228.293C397.726 229.425 396.226 230.813 394.147 232.457C391.797 234.37 389.406 236.27 386.976 238.156C384.653 239.988 382.492 242.01 380.492 244.22C380.303 244.517 379.925 244.975 379.358 245.595C378.898 246.161 378.56 246.498 378.344 246.606L380.894 247.054C381.568 247.19 382.31 247.393 383.12 247.664C383.956 247.854 384.86 248.111 385.831 248.436C387.206 248.896 388.474 249.41 389.634 249.978C390.901 250.493 391.886 251.047 392.587 251.641C392.937 251.939 393.234 252.263 393.476 252.614C393.827 252.911 393.975 253.141 393.921 253.302C393.812 253.626 392.706 253.436 390.602 252.732C389.388 252.326 387.581 251.946 385.179 251.592C382.859 251.266 380.134 251.074 377.004 251.016C375.493 250.961 374.372 251.216 373.643 251.782C372.914 252.348 371.684 253.871 369.955 256.351C367.279 260.315 364.9 264.198 362.817 268.001C360.762 271.722 358.842 275.579 357.057 279.571C356.705 280.353 356.34 281.176 355.961 282.039C355.663 282.929 355.338 283.9 354.986 284.952C354.065 287.703 353.347 290.657 352.831 293.814C352.395 296.998 352.338 299.858 352.659 302.395C352.739 302.962 352.833 303.488 352.941 303.974C353.129 304.487 353.398 304.892 353.749 305.189C354.234 305.621 354.422 305.999 354.314 306.323C354.233 306.566 353.99 306.619 353.585 306.484ZM380.188 295.544C377.274 294.569 375.294 292.017 374.246 287.887C373.306 283.703 374.082 277.889 376.573 270.444C378.198 265.588 380.104 261.907 382.293 259.4C384.509 256.812 386.737 255.128 388.977 254.348C391.218 253.568 393.148 253.449 394.766 253.99C396.384 254.532 397.571 255.559 398.325 257.071C399.105 258.502 399.157 260.229 398.481 262.252C397.831 264.194 396.574 266.068 394.71 267.874C392.873 269.599 390.847 271.081 388.633 272.319C386.527 273.504 384.61 274.123 382.883 274.175C382.505 274.228 382.074 274.174 381.588 274.011C381.264 273.903 381.143 273.728 381.224 273.485C381.441 272.837 382.332 272.326 383.898 271.95C385.895 271.358 388.001 270.173 390.216 268.395C392.458 266.536 393.877 264.716 394.473 262.935C394.825 261.883 394.853 260.993 394.557 260.264C394.288 259.454 393.829 258.941 393.182 258.724C391.968 258.318 390.308 258.842 388.202 260.297C386.203 261.698 384.108 264.597 381.918 268.993C381.323 270.233 380.741 271.433 380.173 272.593C379.713 273.699 379.294 274.818 378.914 275.951C377.398 280.483 376.895 284.274 377.404 287.324C377.94 290.293 379.341 292.156 381.607 292.914C383.549 293.564 386.113 293.162 389.299 291.709C392.512 290.174 396.118 287.331 400.116 283.18C401.116 282.075 401.98 281.644 402.708 281.888C403.194 282.05 403.328 282.455 403.112 283.103C402.922 283.669 402.557 284.222 402.017 284.761C398.18 289.236 394.291 292.389 390.349 294.22C386.407 296.05 383.02 296.491 380.188 295.544ZM419.182 308.591C418.13 308.239 417.416 307.28 417.04 305.715C416.691 304.068 417.153 301.343 418.425 297.54C419.427 294.546 420.766 291.35 422.443 287.951C424.147 284.472 425.878 281.047 427.636 277.676C429.475 274.332 431.097 271.366 432.503 268.777C433.937 266.107 434.87 264.124 435.303 262.83C436.061 260.564 435.752 259.201 434.377 258.74C433.082 258.307 431.53 258.508 429.721 259.342C427.993 260.204 426.211 261.362 424.374 262.817C422.619 264.299 420.998 265.782 419.512 267.264C418.134 268.693 417.188 269.771 416.675 270.499C414.486 273.276 412.621 276.161 411.079 279.155C409.565 282.068 408.252 285.183 407.142 288.501C406.682 289.876 406.249 291.306 405.842 292.79C405.517 294.301 405.137 295.838 404.704 297.403C404.595 298.266 404.013 299.197 402.96 300.194C402.014 301.137 401.137 301.473 400.328 301.203C399.761 301.013 399.398 300.487 399.237 299.623C399.076 298.759 399.009 298.017 399.037 297.396C399.038 296.317 399.134 295.224 399.324 294.118C399.541 292.931 399.704 291.906 399.813 291.042C400.357 287.535 400.954 284.001 401.606 280.439C402.285 276.797 402.721 273.209 402.914 269.674C402.969 268.703 402.956 267.664 402.877 266.557C402.905 265.397 402.663 264.371 402.151 263.48C402.044 263.264 401.855 263.021 401.586 262.751C401.343 262.4 401.249 262.143 401.303 261.981C401.411 261.658 401.911 261.645 402.801 261.943C403.772 262.268 404.581 263.078 405.227 264.374C405.873 265.67 406.33 267.263 406.598 269.152C406.892 271.5 406.983 273.915 406.873 276.398C406.843 278.907 406.8 280.918 406.744 282.429C408.205 279.678 409.597 277.264 410.922 275.188C412.138 273.435 413.679 271.386 415.543 269.041C417.435 266.614 419.542 264.35 421.865 262.248C424.215 260.065 426.686 258.462 429.278 257.439C431.897 256.336 434.541 256.231 437.212 257.124C441.096 258.424 442.28 261.34 440.764 265.872C439.979 268.218 438.708 270.673 436.951 273.234C435.221 275.715 433.478 277.966 431.722 279.988C430.046 282.037 428.898 283.452 428.276 284.234C427.493 285.232 426.533 286.62 425.398 288.4C424.343 290.207 423.302 292.108 422.274 294.104C421.328 296.126 420.556 298.028 419.961 299.808C419.446 301.346 419.175 302.695 419.147 303.855C419.226 304.962 419.671 305.65 420.48 305.921C421.289 306.192 422.139 306.071 423.03 305.56C423.949 304.967 424.718 304.415 425.34 303.903C426.042 303.418 426.325 303.378 426.19 303.782C425.945 305.05 425.04 306.277 423.474 307.462C421.988 308.675 420.557 309.051 419.182 308.591ZM433.844 314.442C431.821 313.765 430.284 312.441 429.234 310.47C428.238 308.607 428.308 305.976 429.445 302.577C430.041 300.797 431.136 298.734 432.731 296.388C434.353 293.961 436.258 291.494 438.447 288.987C440.716 286.507 443.08 284.283 445.538 282.316C447.996 280.349 450.385 278.854 452.707 277.831C455.029 276.808 457.04 276.581 458.739 277.15C460.115 277.61 460.924 278.421 461.165 279.581C461.488 280.769 461.459 281.929 461.08 283.062C460.755 284.033 460.255 284.856 459.58 285.53C459.012 286.15 458.405 286.351 457.758 286.135C457.11 285.918 456.719 285.473 456.585 284.798C456.559 284.069 456.519 283.381 456.466 282.733C456.521 282.032 456.184 281.559 455.456 281.315C453.999 280.828 452.218 281.312 450.111 282.767C448.032 284.14 445.898 286.081 443.709 288.588C441.521 291.095 439.548 293.764 437.79 296.596C436.033 299.427 434.762 302.016 433.977 304.363C433.3 306.386 433.042 307.964 433.202 309.098C433.471 310.178 434.334 310.961 435.79 311.449C437.651 312.071 439.608 312.141 441.659 311.658C443.819 311.12 445.897 310.286 447.895 309.155C449.894 308.024 451.622 306.893 453.08 305.761C454.62 304.656 455.714 303.808 456.362 303.215C457.956 301.678 459.036 301.005 459.602 301.194C459.845 301.276 459.858 301.64 459.642 302.287C459.371 303.097 458.938 303.852 458.344 304.553C457.776 305.173 457.223 305.752 456.682 306.291C454.737 308.34 452.428 310.132 449.755 311.667C447.108 313.121 444.382 314.143 441.575 314.734C438.849 315.351 436.272 315.254 433.844 314.442ZM461.151 322.634C458.237 321.659 456.257 319.107 455.209 314.977C454.269 310.793 455.045 304.979 457.536 297.534C459.161 292.678 461.067 288.997 463.256 286.49C465.472 283.902 467.7 282.218 469.941 281.438C472.181 280.658 474.111 280.539 475.729 281.08C477.348 281.622 478.534 282.648 479.288 284.16C480.069 285.591 480.121 287.319 479.444 289.342C478.794 291.284 477.537 293.158 475.673 294.964C473.836 296.689 471.81 298.171 469.596 299.409C467.49 300.594 465.574 301.213 463.846 301.265C463.469 301.318 463.037 301.264 462.551 301.101C462.228 300.993 462.106 300.818 462.188 300.575C462.404 299.927 463.295 299.416 464.861 299.04C466.858 298.448 468.965 297.263 471.179 295.485C473.421 293.625 474.84 291.806 475.436 290.025C475.788 288.973 475.816 288.083 475.52 287.354C475.251 286.544 474.793 286.031 474.145 285.814C472.931 285.408 471.271 285.932 469.165 287.387C467.166 288.788 465.072 291.687 462.881 296.083C462.286 297.323 461.704 298.523 461.136 299.683C460.676 300.789 460.257 301.908 459.878 303.041C458.361 307.573 457.858 311.364 458.367 314.414C458.903 317.383 460.304 319.246 462.57 320.004C464.513 320.654 467.077 320.252 470.262 318.799C473.475 317.264 477.081 314.421 481.079 310.27C482.079 309.165 482.943 308.734 483.671 308.978C484.157 309.14 484.291 309.545 484.075 310.193C483.885 310.759 483.52 311.312 482.98 311.851C479.143 316.326 475.254 319.479 471.312 321.309C467.37 323.14 463.983 323.581 461.151 322.634Z" fill="white"/>
<path d="M117.401 245.622C114.804 246.466 111.875 246.565 108.615 245.92C105.436 245.248 101.994 243.63 98.2891 241.065C95.3636 238.965 92.8206 236.247 90.6601 232.911C88.526 229.657 86.892 226.285 85.7581 222.795C85.178 221.01 84.7327 219.225 84.4225 217.442C84.0594 215.496 83.8608 213.228 83.8265 210.637C83.8733 208.02 84.052 205.808 84.3626 204.003C84.4478 203.437 84.6416 202.79 84.944 202.064C85.2463 201.338 85.5192 200.935 85.7627 200.856C85.8439 200.83 85.8976 200.857 85.924 200.938C85.9504 201.019 85.8621 201.99 85.659 203.851C84.9486 208.568 85.3976 213.401 87.0062 218.352C88.4565 222.816 90.5703 226.974 93.3475 230.827C96.1795 234.573 99.2328 237.618 102.507 239.964C105.648 242.173 108.484 243.585 111.016 244.198C113.548 244.81 115.828 244.787 117.857 244.128C120.779 243.179 123.102 241.078 124.827 237.826C126.578 234.655 127.699 230.926 128.191 226.639C128.591 223.728 128.537 220.111 128.03 215.79C127.497 211.387 126.643 206.55 125.469 201.279C124.294 196.008 122.796 190.707 120.975 185.377L120.619 184.282C118.174 186.422 115.889 188.779 113.765 191.354C111.695 193.821 109.773 196.464 107.997 199.284C107.833 199.607 107.629 199.808 107.386 199.887C106.899 200.045 106.4 199.893 105.891 199.43C105.356 198.886 104.996 198.33 104.811 197.762C104.495 196.788 104.568 196.047 105.03 195.538C107.104 192.531 109.337 189.876 111.729 187.574C114.203 185.245 116.849 183.174 119.67 181.36C117.874 176.111 115.713 171.116 113.185 166.374C110.739 161.606 108.127 157.296 105.35 153.443C102.654 149.563 100.006 146.386 97.4075 143.91L97.2462 143.828C91.8351 145.676 86.7445 147.958 81.9744 150.675C77.2591 153.283 73.2427 156.248 69.9253 159.569C66.5815 162.809 64.2338 166.353 62.8823 170.202C61.5856 173.943 61.6228 177.924 62.994 182.144C63.5742 183.929 64.2771 185.54 65.1027 186.977C65.9831 188.306 67.0411 189.353 68.2766 190.118C68.9218 190.447 69.3103 190.814 69.4422 191.22C69.6004 191.707 69.436 192.029 68.9491 192.187C68.4621 192.346 67.8829 192.22 67.2114 191.81C65.3043 190.635 63.8315 189.14 62.7928 187.324C61.673 185.534 60.7967 183.666 60.1638 181.718C58.8717 177.741 58.6305 173.961 59.4403 170.378C60.3312 166.769 61.9353 163.422 64.2525 160.336C66.6245 157.143 69.4256 154.303 72.6557 151.818C75.8595 149.252 79.2093 146.997 82.7052 145.054C86.2822 143.084 89.6401 141.544 92.7789 140.435C91.2208 139.505 89.9152 139.077 88.8622 139.15C87.864 139.115 87.0129 139.257 86.3089 139.576C85.6596 139.787 85.0388 139.809 84.4464 139.643C84.0426 139.505 83.788 139.273 83.6825 138.949C83.4189 138.137 84.342 137.389 86.4521 136.703C87.9941 136.202 89.8708 136.041 92.0823 136.22C94.3485 136.291 96.6097 137.037 98.8657 138.457C102.625 137.325 106.923 136.332 111.76 135.478C116.597 134.625 121.485 134.203 126.423 134.213C131.361 134.224 135.903 134.947 140.048 136.381C144.166 137.735 147.373 140.147 149.667 143.619C149.828 143.836 149.987 144.188 150.145 144.675C150.382 145.405 150.298 145.837 149.892 145.968C149.486 146.1 148.922 145.745 148.2 144.903C146.253 141.947 142.962 139.966 138.328 138.959C133.694 137.952 128.285 137.736 122.101 138.309C115.972 138.776 109.675 139.969 103.211 141.89C105.97 144.583 108.549 147.962 110.947 152.028C113.426 156.068 115.7 160.443 117.769 165.154C119.893 169.758 121.8 174.387 123.492 179.041C125.688 177.79 127.976 176.687 130.358 175.734C132.714 174.699 135.149 173.773 137.665 172.956C138.315 172.745 138.922 172.682 139.488 172.767C140.028 172.771 140.324 172.854 140.377 173.017C140.535 173.504 139.6 174.077 137.571 174.736C132.783 176.292 128.34 178.498 124.244 181.354C124.507 182.166 124.784 183.018 125.074 183.911C125.446 184.777 125.763 185.616 126.027 186.428C127.24 190.161 128.226 193.609 128.984 196.772C129.797 199.827 130.426 202.315 130.87 204.234C132.172 210.451 132.477 216.498 131.785 222.376C131.093 228.253 129.49 233.26 126.976 237.397C124.569 241.588 121.377 244.33 117.401 245.622ZM152.618 167.155C151.887 167.393 151.241 167.199 150.679 166.574C150.172 165.841 149.866 165.313 149.76 164.988C149.338 163.69 149.308 162.354 149.669 160.98C150.085 159.499 150.767 158.56 151.715 158.162L152.08 158.043C153.054 157.727 153.782 157.76 154.265 158.141C154.802 158.415 155.177 158.877 155.388 159.526C155.783 160.743 155.691 162.254 155.11 164.057C154.504 165.78 153.673 166.812 152.618 167.155ZM160.57 212.754C157.81 213.65 155.601 213.202 153.941 211.408C152.282 209.614 151.004 207.338 150.107 204.579C149.211 201.819 148.559 198.846 148.151 195.659C147.798 192.364 147.578 189.34 147.491 186.586C147.486 183.807 147.514 181.824 147.577 180.637C147.863 178.48 148.242 176.607 148.713 175.019C149.157 173.349 149.907 172.343 150.962 172C151.692 171.763 152.312 171.875 152.821 172.338C153.385 172.693 153.799 173.276 154.063 174.088C154.59 175.711 154.684 177.52 154.345 179.514C153.98 181.427 153.67 183.233 153.414 184.931C152.872 188.786 152.536 192.17 152.406 195.084C152.357 197.971 152.965 201.362 154.231 205.258C155.048 207.773 155.885 209.52 156.741 210.498C157.679 211.45 158.634 211.768 159.608 211.451C160.907 211.029 162.171 209.811 163.4 207.796C164.604 205.701 165.689 203.105 166.657 200.009C167.625 196.913 168.324 193.68 168.755 190.31C169.041 188.153 169.428 186.996 169.914 186.838C170.239 186.732 170.507 187.004 170.718 187.653C171.008 188.546 171.065 189.963 170.888 191.905C170.766 193.739 170.495 195.666 170.075 197.687C169.736 199.681 169.319 201.297 168.824 202.535C168.024 204.769 166.956 206.865 165.619 208.825C164.282 210.785 162.599 212.094 160.57 212.754ZM191.187 206.305C188.59 207.148 186.206 206.577 184.036 204.591C181.891 202.685 180.358 200.313 179.435 197.472C178.565 194.794 178.101 191.849 178.045 188.637C177.988 185.426 178.147 182.189 178.523 178.926C178.98 175.637 179.556 172.579 180.252 169.751C178.976 170.793 177.689 171.526 176.39 171.948C175.741 172.159 175.146 172.262 174.607 172.258C174.067 172.254 173.622 172.264 173.271 172.288C173.181 173.394 172.978 175.254 172.662 177.87C172.426 180.458 172.149 183.195 171.83 186.08C171.566 188.858 171.305 191.231 171.048 193.199C170.646 196.38 169.958 198.129 168.984 198.445C168.497 198.603 168.148 198.358 167.937 197.709C167.779 197.222 167.771 196.507 167.913 195.563C168.646 191.467 169.27 187.451 169.785 183.515C170.382 179.552 170.856 175.765 171.207 172.151C170.913 171.798 170.58 171.323 170.206 170.727C169.807 170.049 169.475 169.305 169.211 168.493C168.921 167.6 168.699 166.641 168.545 165.614C168.446 164.48 168.441 163.36 168.53 162.254C168.589 161.607 168.772 160.65 169.078 159.384C169.358 158.037 169.759 156.785 170.28 155.629C170.776 154.391 171.388 153.654 172.119 153.417C173.498 152.968 174.426 153.475 174.9 154.935C175.348 156.315 175.416 158.043 175.104 160.118C174.872 162.167 174.561 164.108 174.169 165.94C173.751 167.691 173.661 168.932 173.898 169.662C174.109 170.311 174.539 170.53 175.188 170.319C176.081 170.029 177.032 169.227 178.04 167.912C179.103 166.49 179.909 165.241 180.457 164.166C180.731 163.629 181.182 162.809 181.811 161.707C182.414 160.525 183.121 159.801 183.932 159.538C184.744 159.274 185.351 159.346 185.752 159.754C186.235 160.135 186.582 160.651 186.793 161.3C187.03 162.03 187.009 163.069 186.729 164.416C186.422 165.682 185.994 166.988 185.444 168.333C184.976 169.652 184.576 170.768 184.245 171.683C183.663 173.757 183.063 176.329 182.446 179.401C181.829 182.473 181.481 185.681 181.401 189.027C181.296 192.292 181.678 195.263 182.548 197.941C183.128 199.726 184.181 201.448 185.707 203.106C187.232 204.763 188.766 205.342 190.308 204.841C191.688 204.392 192.911 203.187 193.978 201.226C195.127 199.237 196.061 197.005 196.782 194.527C197.583 192.024 198.208 189.667 198.657 187.458C199.187 185.222 199.536 183.673 199.704 182.811C199.735 182.352 199.86 181.773 200.082 181.073C200.277 180.292 200.658 179.809 201.226 179.625C201.713 179.466 202.036 179.631 202.194 180.118C202.326 180.524 202.362 181.05 202.303 181.697C202.299 182.237 202.282 182.736 202.251 183.195C202.075 185.136 201.762 187.212 201.314 189.421C200.865 191.631 200.543 193.126 200.349 193.907C199.819 196.143 198.721 198.563 197.055 201.168C195.497 203.828 193.541 205.54 191.187 206.305ZM216.698 197.074C215.643 197.416 214.754 197.302 214.029 196.729C213.413 196.212 212.999 195.629 212.788 194.979C212.366 193.681 212.499 192.157 213.187 190.408C213.434 189.79 213.792 188.956 214.258 187.907C214.699 186.777 215.002 185.916 215.168 185.323C213.639 184.205 211.783 183.328 209.602 182.69C207.421 182.053 205.175 181.078 202.865 179.765C200.769 178.562 198.798 176.914 196.952 174.822C195.079 172.649 193.774 170.427 193.036 168.154C192.165 165.476 191.944 162.722 192.37 159.892C192.796 157.061 193.612 154.463 194.817 152.098C196.132 149.517 197.782 147.276 199.766 145.376C201.724 143.394 203.961 141.994 206.477 141.176C208.181 140.623 209.977 140.488 211.864 140.772C213.75 141.056 214.997 142.132 215.604 143.998C216.316 146.189 216.185 147.443 215.211 147.76C214.805 147.891 214.389 147.578 213.963 146.819C213.75 146.44 213.578 146.047 213.446 145.641C213.288 145.154 213.182 144.83 213.129 144.667C212.866 143.856 212.276 143.285 211.361 142.954C210.42 142.542 209.503 142.481 208.61 142.771C206.744 143.378 204.911 144.78 203.114 146.98C201.316 149.179 199.962 151.503 199.053 153.952C198.171 156.482 197.664 159.203 197.534 162.117C197.378 164.949 197.682 167.542 198.447 169.895C199.396 172.817 200.863 175.122 202.847 176.81C204.831 178.498 206.979 179.864 209.292 180.907C211.686 181.924 213.864 182.966 215.826 184.033C216.266 182.903 216.76 181.8 217.308 180.725C217.937 179.623 218.538 178.71 219.11 177.986C219.627 177.369 220.008 177.021 220.251 176.942C220.495 176.863 220.656 176.945 220.735 177.189C220.867 177.595 220.66 178.2 220.114 179.006C220.005 179.221 219.676 179.866 219.128 180.941C218.635 181.909 218.046 183.132 217.36 184.611C218.246 185.131 219.024 185.73 219.694 186.41C220.363 187.09 220.856 187.916 221.173 188.89C221.595 190.189 221.299 191.765 220.287 193.62C219.274 195.474 218.078 196.625 216.698 197.074ZM216.969 193.352C217.538 193.167 217.894 192.468 218.038 191.255C218.289 190.096 218.257 189.03 217.941 188.056C217.782 187.569 217.556 187.149 217.262 186.796C216.968 186.443 216.767 186.239 216.66 186.185C216.274 187.207 215.955 188.298 215.704 189.456C215.507 190.507 215.527 191.398 215.764 192.128C216.081 193.102 216.483 193.51 216.969 193.352ZM248.547 202.472C247.736 202.736 246.712 202.485 245.477 201.72C244.349 201.01 243.129 199.881 241.819 198.332C239.652 195.806 237.798 192.999 236.256 189.911C234.741 186.904 233.456 183.778 232.401 180.531C231.241 176.961 230.35 173.392 229.73 169.825C229.109 166.258 228.635 163.003 228.306 160.059C228.079 157.979 227.894 155.751 227.75 153.376C227.606 151 227.567 149.084 227.632 147.627C227.171 147.866 226.492 148.401 225.595 149.231C224.699 150.06 223.761 150.903 222.783 151.759C221.886 152.589 221.032 153.136 220.221 153.399C219.003 153.795 218.171 153.303 217.722 151.923C217.485 151.193 217.517 150.465 217.82 149.738C218.203 148.986 218.748 148.315 219.454 147.727C220.84 146.469 222.454 145.361 224.296 144.404C226.112 143.365 227.279 142.537 227.796 141.921L228.351 132.858C228.412 131.941 228.558 130.458 228.789 128.408C229.076 126.252 229.444 123.934 229.895 121.455C230.426 118.949 230.984 116.659 231.566 114.586C232.037 112.997 232.559 111.706 233.134 110.712C233.681 109.637 234.442 108.941 235.416 108.624C236.877 108.15 237.792 108.48 238.161 109.617C238.372 110.266 238.404 111.332 238.258 112.815C238.193 114.272 237.814 116.279 237.12 118.838C236.369 121.774 235.577 124.722 234.745 127.685C233.968 130.539 233.433 133.45 233.141 136.416C233.165 136.767 233.134 137.36 233.046 138.196C233.014 138.924 232.943 139.396 232.833 139.611L235.149 138.455C235.772 138.163 236.489 137.885 237.301 137.621C238.086 137.276 238.966 136.946 239.94 136.629C241.319 136.181 242.644 135.84 243.914 135.607C245.239 135.266 246.36 135.126 247.277 135.187C247.736 135.218 248.167 135.302 248.57 135.44C249.029 135.47 249.285 135.567 249.337 135.729C249.443 136.054 248.441 136.559 246.33 137.244C245.113 137.64 243.434 138.41 241.294 139.554C239.234 140.672 236.929 142.138 234.379 143.954C233.131 144.808 232.382 145.679 232.133 146.568C231.883 147.457 231.801 149.413 231.886 152.436C232.092 157.214 232.49 161.75 233.078 166.045C233.639 170.259 234.39 174.502 235.329 178.773C235.511 179.611 235.707 180.489 235.916 181.408C236.206 182.301 236.523 183.275 236.865 184.33C237.762 187.089 238.942 189.891 240.404 192.736C241.948 195.554 243.603 197.887 245.37 199.736C245.772 200.144 246.16 200.511 246.536 200.837C246.992 201.138 247.45 201.303 247.908 201.334C248.556 201.392 248.932 201.584 249.037 201.909C249.116 202.152 248.953 202.34 248.547 202.472Z" fill="white"/>
<g filter="url(#filter2_d_97_9)">
<rect width="14" height="778" rx="1" transform="matrix(-1 0 0 1 18 74.5134)" fill="#49464E"/>
</g>
<path d="M11.9818 74.5182V63.0182L11.5 63.5L11 64L9.5 65.5L7.5 68.5L5.5 72L4 75.5L8.5 75L11.9818 74.5182Z" fill="#49464E"/>
<path d="M17.7995 67.0005L14.821 74.7339C14.5272 75.4967 13.794 76 12.9765 76C11.8849 76 11 75.1151 11 74.0235V64.0973C11 63.4778 11.2739 62.8899 11.7483 62.4914C12.1262 62.174 12.6039 62 13.0973 62H15C16.6569 62 18 63.3431 18 65V65.9222C18 66.2909 17.932 66.6564 17.7995 67.0005Z" fill="#49464E"/>
<line x1="17" y1="67.85" x2="525" y2="67.85" stroke="black" stroke-opacity="0.3" stroke-width="0.3"/>
<line x1="18" y1="66.85" x2="526" y2="66.85" stroke="black" stroke-opacity="0.3" stroke-width="0.3"/>
<line x1="17" y1="68.85" x2="524" y2="68.85" stroke="black" stroke-opacity="0.3" stroke-width="0.3"/>
<line x1="17" y1="69.85" x2="523" y2="69.85" stroke="black" stroke-opacity="0.3" stroke-width="0.3"/>
<line x1="16" y1="70.85" x2="522" y2="70.85" stroke="black" stroke-opacity="0.3" stroke-width="0.3"/>
<line x1="16" y1="71.85" x2="521" y2="71.85" stroke="black" stroke-opacity="0.3" stroke-width="0.3"/>
<line x1="15" y1="72.85" x2="520" y2="72.85" stroke="black" stroke-opacity="0.3" stroke-width="0.3"/>
<line x1="15" y1="73.85" x2="519" y2="73.85" stroke="black" stroke-opacity="0.3" stroke-width="0.3"/>
<line x1="518.85" y1="847" x2="518.85" y2="74" stroke="black" stroke-opacity="0.3" stroke-width="0.3"/>
<line x1="519.85" y1="847" x2="519.85" y2="73" stroke="black" stroke-opacity="0.3" stroke-width="0.3"/>
<line x1="520.85" y1="846" x2="520.85" y2="72" stroke="black" stroke-opacity="0.3" stroke-width="0.3"/>
<line x1="521.85" y1="846" x2="521.85" y2="71" stroke="black" stroke-opacity="0.3" stroke-width="0.3"/>
<line x1="522.85" y1="845" x2="522.85" y2="69" stroke="black" stroke-opacity="0.3" stroke-width="0.3"/>
<line x1="523.85" y1="845" x2="523.85" y2="69" stroke="black" stroke-opacity="0.3" stroke-width="0.3"/>
<line x1="524.85" y1="844" x2="524.85" y2="68" stroke="black" stroke-opacity="0.3" stroke-width="0.3"/>
<line x1="525.85" y1="844" x2="525.85" y2="67" stroke="black" stroke-opacity="0.3" stroke-width="0.3"/>
<line x1="526.85" y1="843" x2="526.85" y2="66" stroke="black" stroke-opacity="0.3" stroke-width="0.3"/>
<line x1="527.85" y1="843" x2="527.85" y2="66" stroke="black" stroke-opacity="0.3" stroke-width="0.3"/>
<defs>
<filter id="filter0_d_97_9" x="9" y="60" width="531" height="794" filterUnits="userSpaceOnUse" color-interpolation-filters="sRGB">
<feFlood flood-opacity="0" result="BackgroundImageFix"/>
<feColorMatrix in="SourceAlpha" type="matrix" values="0 0 0 0 0 0 0 0 0 0 0 0 0 0 0 0 0 0 127 0" result="hardAlpha"/>
<feOffset dx="2" dy="2"/>
<feGaussianBlur stdDeviation="2"/>
<feComposite in2="hardAlpha" operator="out"/>
<feColorMatrix type="matrix" values="0 0 0 0 0 0 0 0 0 0 0 0 0 0 0 0 0 0 0.25 0"/>
<feBlend mode="normal" in2="BackgroundImageFix" result="effect1_dropShadow_97_9"/>
<feBlend mode="normal" in="SourceGraphic" in2="effect1_dropShadow_97_9" result="shape"/>
</filter>
<filter id="filter1_d_97_9" x="11" y="72.5134" width="513" height="786" filterUnits="userSpaceOnUse" color-interpolation-filters="sRGB">
<feFlood flood-opacity="0" result="BackgroundImageFix"/>
<feColorMatrix in="SourceAlpha" type="matrix" values="0 0 0 0 0 0 0 0 0 0 0 0 0 0 0 0 0 0 127 0" result="hardAlpha"/>
<feOffset dx="2" dy="2"/>
<feGaussianBlur stdDeviation="2"/>
<feComposite in2="hardAlpha" operator="out"/>
<feColorMatrix type="matrix" values="0 0 0 0 0 0 0 0 0 0 0 0 0 0 0 0 0 0 0.25 0"/>
<feBlend mode="normal" in2="BackgroundImageFix" result="effect1_dropShadow_97_9"/>
<feBlend mode="normal" in="SourceGraphic" in2="effect1_dropShadow_97_9" result="shape"/>
</filter>
<filter id="filter2_d_97_9" x="0" y="74.5134" width="22" height="786" filterUnits="userSpaceOnUse" color-interpolation-filters="sRGB">
<feFlood flood-opacity="0" result="BackgroundImageFix"/>
<feColorMatrix in="SourceAlpha" type="matrix" values="0 0 0 0 0 0 0 0 0 0 0 0 0 0 0 0 0 0 127 0" result="hardAlpha"/>
<feOffset dy="4"/>
<feGaussianBlur stdDeviation="2"/>
<feComposite in2="hardAlpha" operator="out"/>
<feColorMatrix type="matrix" values="0 0 0 0 0 0 0 0 0 0 0 0 0 0 0 0 0 0 0.25 0"/>
<feBlend mode="normal" in2="BackgroundImageFix" result="effect1_dropShadow_97_9"/>
<feBlend mode="normal" in="SourceGraphic" in2="effect1_dropShadow_97_9" result="shape"/>
</filter>
</defs>
</svg>
