<svg width="277" height="58" viewBox="0 0 277 58" fill="none" xmlns="http://www.w3.org/2000/svg">
<g filter="url(#filter0_d_211_2)">
<path d="M193 4H3V53H193L155.107 28.5L193 4Z" fill="#844A40"/>
</g>
<path d="M277 4H87V53H277L239.107 28.5L277 4Z" fill="#844A40"/>
<path d="M199.331 15.3313C197.672 16.9901 196.357 18.9594 195.459 21.1267C194.561 23.294 194.099 25.6169 194.099 27.9628C194.099 30.3087 194.561 32.6316 195.459 34.7989C196.357 36.9662 197.672 38.9355 199.331 40.5943C200.99 42.2531 202.959 43.5689 205.127 44.4667C207.294 45.3644 209.617 45.8264 211.963 45.8264C214.309 45.8264 216.632 45.3644 218.799 44.4667C220.966 43.5689 222.935 42.2531 224.594 40.5943L223.078 39.0785C221.619 40.5382 219.886 41.6962 217.979 42.4862C216.071 43.2762 214.027 43.6827 211.963 43.6827C209.898 43.6827 207.854 43.2762 205.947 42.4862C204.04 41.6962 202.307 40.5382 200.847 39.0785C199.387 37.6188 198.229 35.8858 197.439 33.9786C196.649 32.0713 196.243 30.0272 196.243 27.9628C196.243 25.8984 196.649 23.8542 197.439 21.947C198.229 20.0398 199.387 18.3068 200.847 16.8471L199.331 15.3313Z" fill="white"/>
<path d="M204.602 20.6025C203.636 21.569 202.869 22.7165 202.346 23.9794C201.823 25.2423 201.554 26.5958 201.554 27.9628C201.554 29.3298 201.823 30.6833 202.346 31.9462C202.869 33.209 203.636 34.3566 204.602 35.3231C205.569 36.2897 206.716 37.0565 207.979 37.5796C209.242 38.1027 210.596 38.3718 211.963 38.3718C213.33 38.3718 214.683 38.1027 215.946 37.5796C217.209 37.0565 218.357 36.2897 219.323 35.3231L217.851 33.851C217.078 34.6243 216.16 35.2377 215.149 35.6562C214.139 36.0747 213.056 36.29 211.963 36.29C210.869 36.29 209.786 36.0747 208.776 35.6562C207.766 35.2377 206.848 34.6243 206.074 33.851C205.301 33.0778 204.688 32.1598 204.269 31.1495C203.851 30.1392 203.635 29.0564 203.635 27.9628C203.635 26.8692 203.851 25.7864 204.269 24.7761C204.688 23.7657 205.301 22.8478 206.074 22.0745L204.602 20.6025Z" fill="white"/>
<path d="M200.891 43.4183C200.42 43.7712 199.762 43.7245 199.346 43.3086L196.516 40.4792C196.116 40.0794 196.056 39.4523 196.372 38.9833L198.804 35.3729C198.889 35.2467 198.998 35.138 199.124 35.053L202.734 32.6209C203.203 32.3049 203.83 32.3655 204.23 32.7653L207.06 35.5947C207.475 36.0106 207.522 36.669 207.169 37.1395L204.579 40.5922C204.512 40.6818 204.433 40.7613 204.343 40.8285L200.891 43.4183Z" fill="white"/>
<path d="M224.594 40.5943C226.253 38.9355 227.569 36.9662 228.467 34.7989C229.364 32.6316 229.826 30.3087 229.826 27.9628C229.826 25.6169 229.364 23.294 228.467 21.1267C227.569 18.9594 226.253 16.9901 224.594 15.3313C222.935 13.6725 220.966 12.3567 218.799 11.4589C216.632 10.5612 214.309 10.0991 211.963 10.0991C209.617 10.0991 207.294 10.5612 205.127 11.4589C202.959 12.3567 200.99 13.6725 199.331 15.3313L200.847 16.8471C202.307 15.3873 204.04 14.2294 205.947 13.4394C207.854 12.6494 209.898 12.2428 211.963 12.2428C214.027 12.2428 216.071 12.6494 217.979 13.4394C219.886 14.2294 221.619 15.3873 223.078 16.8471C224.538 18.3068 225.696 20.0398 226.486 21.947C227.276 23.8542 227.683 25.8984 227.683 27.9628C227.683 30.0272 227.276 32.0713 226.486 33.9786C225.696 35.8858 224.538 37.6188 223.078 39.0785L224.594 40.5943Z" fill="white"/>
<path d="M219.323 35.3231C220.29 34.3566 221.056 33.2091 221.58 31.9462C222.103 30.6833 222.372 29.3297 222.372 27.9627C222.372 26.5958 222.103 25.2423 221.58 23.9794C221.056 22.7165 220.29 21.569 219.323 20.6025C218.357 19.6358 217.209 18.8691 215.946 18.346C214.683 17.8229 213.33 17.5536 211.963 17.5536C210.596 17.5536 209.242 17.8229 207.979 18.346C206.716 18.8691 205.569 19.6358 204.602 20.6025L206.074 22.0745C206.848 21.3013 207.766 20.6878 208.776 20.2694C209.786 19.8509 210.869 19.6355 211.963 19.6355C213.056 19.6355 214.139 19.8509 215.149 20.2694C216.16 20.6878 217.078 21.3013 217.851 22.0745C218.624 22.8477 219.238 23.7657 219.656 24.7761C220.075 25.7864 220.29 26.8692 220.29 27.9627C220.29 29.0564 220.075 30.1392 219.656 31.1495C219.238 32.1598 218.624 33.0778 217.851 33.851L219.323 35.3231Z" fill="white"/>
<path d="M223.075 12.329C223.536 12.0706 224.113 12.1505 224.487 12.5246L227.418 15.4555C227.814 15.8512 227.878 16.4703 227.571 16.9386L225.18 20.5901C225.091 20.7262 224.975 20.8424 224.839 20.9315L221.187 23.3225C220.719 23.629 220.1 23.5651 219.704 23.1694L216.773 20.2385C216.399 19.8644 216.319 19.2873 216.578 18.8257L218.746 14.9513C218.853 14.7609 219.01 14.6037 219.2 14.4971L223.075 12.329Z" fill="white"/>
<path d="M199.331 40.5943C200.99 42.2531 202.959 43.5689 205.127 44.4667C207.294 45.3644 209.617 45.8264 211.963 45.8264C214.309 45.8264 216.632 45.3644 218.799 44.4667C220.966 43.5689 222.935 42.2531 224.594 40.5943C226.253 38.9355 227.569 36.9662 228.467 34.7989C229.364 32.6316 229.826 30.3087 229.826 27.9628C229.826 25.6169 229.364 23.294 228.467 21.1267C227.569 18.9594 226.253 16.9901 224.594 15.3313L223.078 16.8471C224.538 18.3068 225.696 20.0398 226.486 21.947C227.276 23.8542 227.683 25.8984 227.683 27.9628C227.683 30.0272 227.276 32.0713 226.486 33.9786C225.696 35.8858 224.538 37.6188 223.078 39.0785C221.619 40.5382 219.886 41.6962 217.979 42.4862C216.071 43.2762 214.027 43.6827 211.963 43.6827C209.898 43.6827 207.854 43.2762 205.947 42.4862C204.04 41.6962 202.307 40.5382 200.847 39.0785L199.331 40.5943Z" fill="white"/>
<path d="M204.602 35.3231C205.569 36.2897 206.716 37.0565 207.979 37.5796C209.242 38.1027 210.596 38.3718 211.963 38.3718C213.33 38.3718 214.683 38.1027 215.946 37.5796C217.209 37.0565 218.357 36.2897 219.323 35.3231C220.29 34.3566 221.056 33.209 221.58 31.9462C222.103 30.6833 222.372 29.3298 222.372 27.9628C222.372 26.5958 222.103 25.2423 221.58 23.9794C221.056 22.7165 220.29 21.569 219.323 20.6025L217.851 22.0745C218.624 22.8478 219.238 23.7657 219.656 24.7761C220.075 25.7864 220.29 26.8692 220.29 27.9628C220.29 29.0564 220.075 30.1392 219.656 31.1495C219.238 32.1598 218.624 33.0778 217.851 33.851C217.078 34.6243 216.16 35.2377 215.149 35.6562C214.139 36.0747 213.056 36.29 211.963 36.29C210.869 36.29 209.786 36.0747 208.776 35.6562C207.766 35.2377 206.848 34.6243 206.074 33.851L204.602 35.3231Z" fill="white"/>
<path d="M227.528 39.0561C227.824 39.5232 227.756 40.1326 227.365 40.5234L224.448 43.4402C224.062 43.826 223.463 43.8976 222.997 43.6134L219.244 41.3236C219.084 41.2257 218.949 41.0908 218.851 40.9304L216.561 37.1776C216.277 36.7118 216.349 36.1121 216.734 35.7263L219.651 32.8095C220.042 32.4187 220.651 32.3509 221.118 32.6463L224.82 34.9868C224.968 35.0806 225.094 35.206 225.188 35.3542L227.528 39.0561Z" fill="white"/>
<path d="M224.594 15.3313C222.935 13.6725 220.966 12.3567 218.799 11.4589C216.632 10.5612 214.309 10.0991 211.963 10.0991C209.617 10.0991 207.294 10.5612 205.127 11.4589C202.959 12.3567 200.99 13.6725 199.331 15.3313C197.672 16.9901 196.357 18.9594 195.459 21.1267C194.561 23.294 194.099 25.6169 194.099 27.9628C194.099 30.3087 194.561 32.6316 195.459 34.7989C196.357 36.9662 197.672 38.9355 199.331 40.5943L200.847 39.0785C199.387 37.6188 198.229 35.8858 197.439 33.9786C196.649 32.0713 196.243 30.0272 196.243 27.9628C196.243 25.8984 196.649 23.8542 197.439 21.947C198.229 20.0398 199.387 18.3068 200.847 16.8471C202.307 15.3873 204.04 14.2294 205.947 13.4394C207.854 12.6494 209.898 12.2428 211.963 12.2428C214.027 12.2428 216.071 12.6494 217.979 13.4394C219.886 14.2294 221.619 15.3873 223.078 16.8471L224.594 15.3313Z" fill="white"/>
<path d="M219.323 20.6025C218.357 19.6358 217.209 18.8691 215.946 18.346C214.683 17.8229 213.33 17.5536 211.963 17.5536C210.596 17.5536 209.242 17.8229 207.979 18.346C206.716 18.8691 205.569 19.6358 204.602 20.6025C203.636 21.569 202.869 22.7165 202.346 23.9794C201.823 25.2423 201.554 26.5958 201.554 27.9627C201.554 29.3297 201.823 30.6833 202.346 31.9462C202.869 33.2091 203.636 34.3566 204.602 35.3231L206.074 33.851C205.301 33.0778 204.688 32.1598 204.269 31.1495C203.851 30.1392 203.635 29.0564 203.635 27.9627C203.635 26.8692 203.851 25.7864 204.269 24.7761C204.688 23.7657 205.301 22.8477 206.074 22.0745C206.848 21.3013 207.766 20.6878 208.776 20.2694C209.786 19.8509 210.869 19.6355 211.963 19.6355C213.056 19.6355 214.139 19.8509 215.149 20.2694C216.16 20.6878 217.078 21.3013 217.851 22.0745L219.323 20.6025Z" fill="white"/>
<path d="M196.469 16.8842C196.136 16.4143 196.19 15.7727 196.597 15.3654L199.443 12.5202C199.844 12.1186 200.475 12.0595 200.944 12.3793L204.537 14.8285C204.659 14.9117 204.765 15.0172 204.848 15.1394L207.297 18.7328C207.617 19.2021 207.558 19.8325 207.156 20.234L204.311 23.0793C203.904 23.4866 203.262 23.5409 202.792 23.208L199.255 20.7024C199.146 20.6252 199.051 20.5301 198.974 20.4212L196.469 16.8842Z" fill="white"/>
<defs>
<filter id="filter0_d_211_2" x="0" y="1" width="198" height="57" filterUnits="userSpaceOnUse" color-interpolation-filters="sRGB">
<feFlood flood-opacity="0" result="BackgroundImageFix"/>
<feColorMatrix in="SourceAlpha" type="matrix" values="0 0 0 0 0 0 0 0 0 0 0 0 0 0 0 0 0 0 127 0" result="hardAlpha"/>
<feOffset dx="1" dy="1"/>
<feGaussianBlur stdDeviation="2"/>
<feComposite in2="hardAlpha" operator="out"/>
<feColorMatrix type="matrix" values="0 0 0 0 0 0 0 0 0 0 0 0 0 0 0 0 0 0 0.25 0"/>
<feBlend mode="normal" in2="BackgroundImageFix" result="effect1_dropShadow_211_2"/>
<feBlend mode="normal" in="SourceGraphic" in2="effect1_dropShadow_211_2" result="shape"/>
</filter>
</defs>
</svg>
