<svg width="277" height="58" viewBox="0 0 277 58" fill="none" xmlns="http://www.w3.org/2000/svg">
<g filter="url(#filter0_d_213_8)">
<path d="M193 4.00006H3V53.0001H193L155.107 28.5001L193 4.00006Z" fill="#AD6048"/>
</g>
<path d="M277 4.00006H87V53.0001H277L239.107 28.5001L277 4.00006Z" fill="#AD6048"/>
<path d="M199.331 15.3314C197.672 16.9902 196.357 18.9595 195.459 21.1268C194.561 23.2941 194.099 25.6171 194.099 27.9629C194.099 30.3088 194.561 32.6317 195.459 34.7991C196.357 36.9663 197.672 38.9356 199.331 40.5944C200.99 42.2532 202.959 43.5691 205.127 44.4668C207.294 45.3645 209.617 45.8265 211.963 45.8265C214.309 45.8265 216.632 45.3645 218.799 44.4668C220.966 43.5691 222.935 42.2532 224.594 40.5944L223.078 39.0786C221.619 40.5383 219.886 41.6963 217.979 42.4863C216.071 43.2763 214.027 43.6829 211.963 43.6829C209.898 43.6829 207.854 43.2763 205.947 42.4863C204.04 41.6963 202.307 40.5383 200.847 39.0786C199.387 37.6189 198.229 35.886 197.439 33.9787C196.649 32.0714 196.243 30.0273 196.243 27.9629C196.243 25.8985 196.649 23.8543 197.439 21.9471C198.229 20.0399 199.387 18.307 200.847 16.8472L199.331 15.3314Z" fill="white"/>
<path d="M204.602 20.6025C203.636 21.5691 202.869 22.7165 202.346 23.9794C201.823 25.2424 201.554 26.5959 201.554 27.9628C201.554 29.3298 201.823 30.6834 202.346 31.9463C202.869 33.2091 203.636 34.3566 204.602 35.3232C205.569 36.2898 206.716 37.0565 207.979 37.5796C209.242 38.1027 210.596 38.3719 211.963 38.3719C213.33 38.3719 214.683 38.1027 215.946 37.5796C217.209 37.0565 218.357 36.2897 219.323 35.3232L217.851 33.8511C217.078 34.6244 216.16 35.2377 215.149 35.6563C214.139 36.0747 213.056 36.2901 211.963 36.2901C210.869 36.2901 209.786 36.0747 208.776 35.6563C207.766 35.2378 206.848 34.6244 206.074 33.8511C205.301 33.0779 204.688 32.1599 204.269 31.1495C203.851 30.1393 203.635 29.0564 203.635 27.9628C203.635 26.8693 203.851 25.7864 204.269 24.7762C204.688 23.7658 205.301 22.8478 206.074 22.0745L204.602 20.6025Z" fill="white"/>
<path d="M200.891 43.4183C200.42 43.7712 199.762 43.7245 199.346 43.3086L196.516 40.4792C196.116 40.0794 196.056 39.4523 196.372 38.9833L198.804 35.3729C198.889 35.2467 198.998 35.138 199.124 35.053L202.734 32.6209C203.203 32.3049 203.83 32.3655 204.23 32.7653L207.06 35.5947C207.475 36.0106 207.522 36.669 207.169 37.1395L204.579 40.5922C204.512 40.6818 204.433 40.7613 204.343 40.8285L200.891 43.4183Z" fill="white"/>
<path d="M224.594 40.5944C226.253 38.9355 227.569 36.9663 228.467 34.799C229.364 32.6316 229.826 30.3087 229.826 27.9628C229.826 25.617 229.364 23.2941 228.467 21.1267C227.569 18.9595 226.253 16.9902 224.594 15.3314C222.935 13.6725 220.966 12.3567 218.799 11.459C216.632 10.5613 214.309 10.0992 211.963 10.0992C209.617 10.0992 207.294 10.5613 205.127 11.459C202.959 12.3567 200.99 13.6725 199.331 15.3314L200.847 16.8472C202.307 15.3874 204.04 14.2295 205.947 13.4395C207.854 12.6495 209.898 12.2428 211.963 12.2428C214.027 12.2428 216.071 12.6495 217.979 13.4395C219.886 14.2295 221.619 15.3874 223.078 16.8472C224.538 18.3069 225.696 20.0398 226.486 21.9471C227.276 23.8543 227.683 25.8985 227.683 27.9628C227.683 30.0273 227.276 32.0714 226.486 33.9786C225.696 35.8859 224.538 37.6188 223.078 39.0785L224.594 40.5944Z" fill="white"/>
<path d="M219.323 35.3232C220.29 34.3566 221.056 33.2092 221.58 31.9463C222.103 30.6833 222.372 29.3298 222.372 27.9628C222.372 26.5959 222.103 25.2423 221.58 23.9794C221.056 22.7165 220.29 21.5691 219.323 20.6025C218.357 19.6359 217.209 18.8692 215.946 18.3461C214.683 17.823 213.33 17.5537 211.963 17.5537C210.596 17.5537 209.242 17.823 207.979 18.3461C206.716 18.8692 205.569 19.6359 204.602 20.6025L206.074 22.0745C206.848 21.3013 207.766 20.6879 208.776 20.2694C209.786 19.851 210.869 19.6355 211.963 19.6355C213.056 19.6355 214.139 19.851 215.149 20.2694C216.16 20.6879 217.078 21.3013 217.851 22.0745C218.624 22.8478 219.238 23.7658 219.656 24.7762C220.075 25.7864 220.29 26.8693 220.29 27.9628C220.29 29.0564 220.075 30.1393 219.656 31.1495C219.238 32.1599 218.624 33.0779 217.851 33.8511L219.323 35.3232Z" fill="white"/>
<path d="M223.075 12.329C223.536 12.0707 224.113 12.1506 224.487 12.5247L227.418 15.4556C227.814 15.8513 227.878 16.4704 227.571 16.9387L225.18 20.5902C225.091 20.7263 224.975 20.8425 224.839 20.9316L221.187 23.3226C220.719 23.6291 220.1 23.5652 219.704 23.1695L216.773 20.2386C216.399 19.8645 216.319 19.2874 216.578 18.8257L218.746 14.9514C218.853 14.7609 219.01 14.6037 219.2 14.4972L223.075 12.329Z" fill="white"/>
<path d="M199.331 40.5944C200.99 42.2532 202.959 43.5691 205.127 44.4668C207.294 45.3645 209.617 45.8265 211.963 45.8265C214.309 45.8265 216.632 45.3645 218.799 44.4668C220.966 43.5691 222.935 42.2532 224.594 40.5944C226.253 38.9356 227.569 36.9663 228.467 34.7991C229.364 32.6317 229.826 30.3088 229.826 27.9629C229.826 25.6171 229.364 23.2941 228.467 21.1268C227.569 18.9595 226.253 16.9902 224.594 15.3314L223.078 16.8472C224.538 18.307 225.696 20.0399 226.486 21.9471C227.276 23.8543 227.683 25.8985 227.683 27.9629C227.683 30.0273 227.276 32.0714 226.486 33.9787C225.696 35.886 224.538 37.6189 223.078 39.0786C221.619 40.5383 219.886 41.6963 217.979 42.4863C216.071 43.2763 214.027 43.6829 211.963 43.6829C209.898 43.6829 207.854 43.2763 205.947 42.4863C204.04 41.6963 202.307 40.5383 200.847 39.0786L199.331 40.5944Z" fill="white"/>
<path d="M204.602 35.3232C205.569 36.2898 206.716 37.0565 207.979 37.5796C209.242 38.1027 210.596 38.3719 211.963 38.3719C213.33 38.3719 214.683 38.1027 215.946 37.5796C217.209 37.0565 218.357 36.2897 219.323 35.3232C220.29 34.3566 221.056 33.2091 221.58 31.9463C222.103 30.6834 222.372 29.3298 222.372 27.9628C222.372 26.5959 222.103 25.2424 221.58 23.9794C221.056 22.7165 220.29 21.5691 219.323 20.6025L217.851 22.0745C218.624 22.8478 219.238 23.7658 219.656 24.7762C220.075 25.7864 220.29 26.8693 220.29 27.9628C220.29 29.0564 220.075 30.1393 219.656 31.1495C219.238 32.1599 218.624 33.0779 217.851 33.8511C217.078 34.6244 216.16 35.2377 215.149 35.6563C214.139 36.0747 213.056 36.2901 211.963 36.2901C210.869 36.2901 209.786 36.0747 208.776 35.6563C207.766 35.2378 206.848 34.6244 206.074 33.8511L204.602 35.3232Z" fill="white"/>
<path d="M227.528 39.0562C227.824 39.5233 227.756 40.1327 227.365 40.5234L224.448 43.4402C224.062 43.8261 223.463 43.8976 222.997 43.6134L219.244 41.3237C219.084 41.2258 218.949 41.0909 218.851 40.9304L216.561 37.1776C216.277 36.7119 216.349 36.1122 216.734 35.7263L219.651 32.8095C220.042 32.4188 220.651 32.351 221.118 32.6463L224.82 34.9869C224.968 35.0806 225.094 35.2061 225.188 35.3542L227.528 39.0562Z" fill="white"/>
<path d="M224.594 15.3314C222.935 13.6725 220.966 12.3567 218.799 11.459C216.632 10.5613 214.309 10.0992 211.963 10.0992C209.617 10.0992 207.294 10.5613 205.127 11.459C202.959 12.3567 200.99 13.6725 199.331 15.3314C197.672 16.9902 196.357 18.9595 195.459 21.1267C194.561 23.2941 194.099 25.617 194.099 27.9628C194.099 30.3087 194.561 32.6316 195.459 34.799C196.357 36.9663 197.672 38.9355 199.331 40.5944L200.847 39.0785C199.387 37.6188 198.229 35.8859 197.439 33.9786C196.649 32.0714 196.243 30.0273 196.243 27.9628C196.243 25.8985 196.649 23.8543 197.439 21.9471C198.229 20.0398 199.387 18.3069 200.847 16.8472C202.307 15.3874 204.04 14.2295 205.947 13.4395C207.854 12.6495 209.898 12.2428 211.963 12.2428C214.027 12.2428 216.071 12.6495 217.979 13.4395C219.886 14.2295 221.619 15.3874 223.078 16.8472L224.594 15.3314Z" fill="white"/>
<path d="M219.323 20.6025C218.357 19.6359 217.209 18.8692 215.946 18.3461C214.683 17.823 213.33 17.5537 211.963 17.5537C210.596 17.5537 209.242 17.823 207.979 18.3461C206.716 18.8692 205.569 19.6359 204.602 20.6025C203.636 21.5691 202.869 22.7165 202.346 23.9794C201.823 25.2423 201.554 26.5959 201.554 27.9628C201.554 29.3298 201.823 30.6833 202.346 31.9463C202.869 33.2092 203.636 34.3566 204.602 35.3232L206.074 33.8511C205.301 33.0779 204.688 32.1599 204.269 31.1495C203.851 30.1393 203.635 29.0564 203.635 27.9628C203.635 26.8693 203.851 25.7864 204.269 24.7762C204.688 23.7658 205.301 22.8478 206.074 22.0745C206.848 21.3013 207.766 20.6879 208.776 20.2694C209.786 19.851 210.869 19.6355 211.963 19.6355C213.056 19.6355 214.139 19.851 215.149 20.2694C216.16 20.6879 217.078 21.3013 217.851 22.0745L219.323 20.6025Z" fill="white"/>
<path d="M196.469 16.8843C196.136 16.4143 196.19 15.7727 196.597 15.3654L199.443 12.5203C199.844 12.1186 200.475 12.0595 200.944 12.3793L204.537 14.8285C204.659 14.9118 204.765 15.0173 204.848 15.1394L207.297 18.7329C207.617 19.2022 207.558 19.8325 207.156 20.2341L204.311 23.0793C203.904 23.4866 203.262 23.541 202.792 23.2081L199.255 20.7024C199.146 20.6253 199.051 20.5302 198.974 20.4213L196.469 16.8843Z" fill="white"/>
<defs>
<filter id="filter0_d_213_8" x="0" y="1.00006" width="198" height="56.9999" filterUnits="userSpaceOnUse" color-interpolation-filters="sRGB">
<feFlood flood-opacity="0" result="BackgroundImageFix"/>
<feColorMatrix in="SourceAlpha" type="matrix" values="0 0 0 0 0 0 0 0 0 0 0 0 0 0 0 0 0 0 127 0" result="hardAlpha"/>
<feOffset dx="1" dy="1"/>
<feGaussianBlur stdDeviation="2"/>
<feComposite in2="hardAlpha" operator="out"/>
<feColorMatrix type="matrix" values="0 0 0 0 0 0 0 0 0 0 0 0 0 0 0 0 0 0 0.25 0"/>
<feBlend mode="normal" in2="BackgroundImageFix" result="effect1_dropShadow_213_8"/>
<feBlend mode="normal" in="SourceGraphic" in2="effect1_dropShadow_213_8" result="shape"/>
</filter>
</defs>
</svg>
