<svg width="34" height="33" viewBox="0 0 34 33" fill="none" xmlns="http://www.w3.org/2000/svg">
<path d="M3.3125 13.875C1.4375 13.875 0.5 12.9375 0.5 11.0625L0.5 3.4375C0.5 1.5625 1.4375 0.625 3.3125 0.625H10.5625C12.4375 0.625 13.375 1.5625 13.375 3.4375V11.0625C13.375 15.4375 12.9167 19.25 12 22.5C11.0417 25.7917 9.1875 28.6667 6.4375 31.125C5.52083 31.9167 4.75 32.0208 4.125 31.4375L1.3125 28.8125C0.6875 28.2292 0.833333 27.5208 1.75 26.6875C3.16667 25.4375 4.33333 23.625 5.25 21.25C6.125 18.9167 6.5625 16.4583 6.5625 13.875H3.3125ZM23.9375 13.875C22.0625 13.875 21.125 12.9375 21.125 11.0625V3.4375C21.125 1.5625 22.0625 0.625 23.9375 0.625H31.1875C33.0625 0.625 34 1.5625 34 3.4375V11.0625C34 15.4375 33.5417 19.25 32.625 22.5C31.6667 25.7917 29.8125 28.6667 27.0625 31.125C26.1458 31.9167 25.375 32.0208 24.75 31.4375L21.9375 28.8125C21.3125 28.2292 21.4583 27.5208 22.375 26.6875C23.7917 25.4375 24.9583 23.625 25.875 21.25C26.75 18.9167 27.1875 16.4583 27.1875 13.875H23.9375Z" fill="black" fill-opacity="0.4"/>
</svg>
