<svg width="34" height="33" viewBox="0 0 34 33" fill="none" xmlns="http://www.w3.org/2000/svg">
<path d="M30.6875 19.125C32.5625 19.125 33.5 20.0625 33.5 21.9375V29.5625C33.5 31.4375 32.5625 32.375 30.6875 32.375H23.4375C21.5625 32.375 20.625 31.4375 20.625 29.5625V21.9375C20.625 17.5625 21.0833 13.75 22 10.5C22.9583 7.20833 24.8125 4.33333 27.5625 1.875C28.4792 1.08333 29.25 0.979167 29.875 1.5625L32.6875 4.1875C33.3125 4.77083 33.1667 5.47917 32.25 6.3125C30.8333 7.5625 29.6667 9.375 28.75 11.75C27.875 14.0833 27.4375 16.5417 27.4375 19.125H30.6875ZM10.0625 19.125C11.9375 19.125 12.875 20.0625 12.875 21.9375V29.5625C12.875 31.4375 11.9375 32.375 10.0625 32.375H2.8125C0.9375 32.375 0 31.4375 0 29.5625V21.9375C0 17.5625 0.458333 13.75 1.375 10.5C2.33333 7.20833 4.1875 4.33333 6.9375 1.875C7.85417 1.08333 8.625 0.979167 9.25 1.5625L12.0625 4.1875C12.6875 4.77083 12.5417 5.47917 11.625 6.3125C10.2083 7.5625 9.04167 9.375 8.125 11.75C7.25 14.0833 6.8125 16.5417 6.8125 19.125H10.0625Z" fill="black" fill-opacity="0.4"/>
</svg>
